<?xml version="1.0" encoding="utf-8"?>
<!-- Generator: Adobe Illustrator 17.0.0, SVG Export Plug-In . SVG Version: 6.00 Build 0)  -->
<!DOCTYPE svg PUBLIC "-//W3C//DTD SVG 1.1//EN" "http://www.w3.org/Graphics/SVG/1.1/DTD/svg11.dtd">
<svg version="1.1" id="Capa_1" xmlns="http://www.w3.org/2000/svg" xmlns:xlink="http://www.w3.org/1999/xlink" x="0px" y="0px"
	 width="800px" height="200px" viewBox="0 0 800 200" enable-background="new 0 0 800 200" xml:space="preserve">
<g>
	<path fill="#0D5CA6" d="M618.418,173.277c2.666,0,5.255-0.461,7.768-1.384c2.513-0.923,4.589-2.154,6.229-3.692
		c2.359-1.846,3.538-3.794,3.538-5.845v-7.69c-2.153-0.821-4.486-1.461-6.998-1.923c-2.512-0.461-4.845-0.692-6.998-0.692
		c-4.512,0-8.228,1.026-11.151,3.077c-2.923,2.05-4.384,4.717-4.384,7.998c0,2.974,1.128,5.409,3.384,7.306
		C612.061,172.329,614.932,173.277,618.418,173.277 M611.189,190.966c-3.999,0-7.716-0.641-11.151-1.923
		c-3.436-1.282-6.384-3.076-8.845-5.384c-2.461-2.307-4.409-5.025-5.844-8.152c-1.436-3.128-2.153-6.536-2.153-10.228
		c0-4,0.846-7.64,2.538-10.921c1.692-3.282,4.076-6.101,7.152-8.46c3.077-2.358,6.717-4.204,10.921-5.537
		c4.204-1.333,8.87-2,13.997-2c3.384,0,6.665,0.282,9.845,0.846c3.179,0.564,5.947,1.41,8.306,2.538v-3.691
		c0-9.332-5.384-13.997-16.15-13.997c-4.409,0-8.614,0.743-12.613,2.23c-3.999,1.486-8.203,3.716-12.613,6.69l-7.229-15.381
		c5.332-3.487,10.869-6.101,16.612-7.845c5.742-1.743,11.844-2.615,18.304-2.615c12.203,0,21.636,2.872,28.302,8.614
		c6.665,5.742,9.998,14.151,9.998,25.225v20.765c0,2.46,0.385,4.178,1.154,5.153c0.769,0.974,2.127,1.563,4.076,1.768v20.765
		c-2.153,0.512-4.102,0.846-5.845,1c-1.743,0.154-3.333,0.23-4.769,0.23c-4.614,0-8.101-0.897-10.459-2.691
		c-2.358-1.794-3.845-4.333-4.461-7.614l-0.461-3.692c-3.59,4.614-7.871,8.152-12.844,10.613
		C621.982,189.736,616.726,190.966,611.189,190.966z"/>
	<path fill="#0D5CA6" d="M377.717,188.143l-0.615,0.208c-1.538,0.513-3.284,0.975-5.232,1.385c-1.947,0.41-3.999,0.615-6.152,0.615
		c-2.257,0-4.409-0.309-6.458-0.923c-2.052-0.615-3.847-1.564-5.385-2.845c-1.538-1.281-2.77-2.897-3.691-4.845
		c-0.923-1.947-1.385-4.204-1.385-6.767v-57.373h-11.075v-8.307H348.8V77.627h10.46v31.663h18.457v8.307H359.26v54.449
		c0.204,2.975,1.255,5.154,3.151,6.536c1.896,1.386,4.078,2.078,6.536,2.078c2.975,0,5.59-0.488,7.846-1.464l0.924-0.403V188.143z"
		/>
	<path fill="#0D5CA6" d="M578.08,129.749c-5.947,0.102-11.331,1.077-16.15,2.922c-4.819,1.846-8.307,4.614-10.46,8.306v48.451
		h-24.61v-80.752h22.611v16.304c2.769-5.435,6.332-9.69,10.69-12.767c4.359-3.077,8.998-4.666,13.92-4.769c1.128,0,1.948,0,2.461,0
		c0.513,0,1.025,0.051,1.538,0.155V129.749z"/>
	<path fill="#0D5CA6" d="M265.817,149.744c0,4.512,0.769,8.691,2.308,12.536c1.538,3.845,3.614,7.229,6.229,10.152
		c2.615,2.922,5.691,5.204,9.229,6.845c3.538,1.64,7.307,2.461,11.305,2.461s7.767-0.846,11.305-2.538
		c3.538-1.692,6.64-3.999,9.305-6.921c2.667-2.922,4.769-6.332,6.306-10.229c1.538-3.897,2.308-8.101,2.308-12.613
		c0-4.409-0.769-8.587-2.308-12.536c-1.538-3.948-3.64-7.383-6.306-10.305c-2.665-2.923-5.767-5.23-9.305-6.922
		c-3.538-1.692-7.307-2.538-11.305-2.538s-7.742,0.846-11.228,2.538c-3.487,1.692-6.563,4.025-9.229,6.998
		c-2.666,2.974-4.769,6.435-6.306,10.383C266.587,141.003,265.817,145.232,265.817,149.744 M294.888,190.966
		c-5.845,0-11.178-1.102-15.997-3.307c-4.819-2.205-8.998-5.204-12.536-8.999c-3.538-3.794-6.281-8.203-8.229-13.228
		c-1.948-5.025-2.922-10.305-2.922-15.843c0-5.64,0.999-10.972,2.999-15.996c2-5.025,4.769-9.434,8.306-13.228
		c3.538-3.795,7.717-6.82,12.537-9.075c4.819-2.256,10.1-3.384,15.842-3.384s11.049,1.128,15.92,3.384
		c4.87,2.256,9.075,5.281,12.613,9.075c3.537,3.794,6.306,8.203,8.306,13.228c1.999,5.025,2.999,10.357,2.999,15.996
		c0,5.538-0.974,10.818-2.922,15.843c-1.948,5.025-4.691,9.434-8.229,13.228c-3.538,3.794-7.742,6.793-12.613,8.999
		C306.091,189.864,300.733,190.966,294.888,190.966z"/>
	<path fill="#0D5CA6" d="M177.183,149.744c0,4.512,0.769,8.691,2.308,12.536c1.538,3.845,3.614,7.229,6.229,10.152
		c2.615,2.922,5.691,5.204,9.229,6.845c3.538,1.64,7.307,2.461,11.305,2.461c3.999,0,7.767-0.846,11.305-2.538
		c3.538-1.692,6.64-3.999,9.305-6.921c2.666-2.922,4.769-6.332,6.306-10.229c1.538-3.897,2.308-8.101,2.308-12.613
		c0-4.409-0.769-8.587-2.308-12.536c-1.537-3.948-3.64-7.383-6.306-10.305c-2.665-2.923-5.767-5.23-9.305-6.922
		c-3.538-1.692-7.307-2.538-11.305-2.538c-3.999,0-7.742,0.846-11.228,2.538c-3.487,1.692-6.563,4.025-9.229,6.998
		c-2.666,2.974-4.769,6.435-6.306,10.383C177.952,141.003,177.183,145.232,177.183,149.744 M206.254,190.966
		c-5.845,0-11.178-1.102-15.997-3.307c-4.82-2.205-8.998-5.204-12.536-8.999c-3.538-3.794-6.281-8.203-8.229-13.228
		c-1.949-5.025-2.922-10.305-2.922-15.843c0-5.64,0.999-10.972,2.999-15.996c2-5.025,4.769-9.434,8.306-13.228
		c3.538-3.795,7.717-6.82,12.536-9.075c4.82-2.256,10.1-3.384,15.843-3.384c5.742,0,11.049,1.128,15.92,3.384
		c4.87,2.256,9.075,5.281,12.613,9.075c3.537,3.794,6.306,8.203,8.306,13.228c1.999,5.025,2.999,10.357,2.999,15.996
		c0,5.538-0.974,10.818-2.922,15.843c-1.948,5.025-4.691,9.434-8.229,13.228c-3.538,3.794-7.742,6.793-12.613,8.999
		C217.456,189.864,212.098,190.966,206.254,190.966z"/>
	<path fill="#0D5CA6" d="M116.85,181.738c4.409,0,8.434-0.898,12.074-2.692c3.641-1.794,6.768-4.204,9.383-7.229
		c2.615-3.025,4.665-6.46,6.152-10.305c1.487-3.845,2.23-7.819,2.23-11.921c0-4.204-0.692-8.255-2.076-12.151
		c-1.385-3.896-3.333-7.357-5.846-10.382c-2.512-3.025-5.537-5.434-9.075-7.229c-3.538-1.794-7.409-2.691-11.613-2.691
		c-3.179,0-6.153,0.538-8.921,1.615s-5.332,2.538-7.69,4.384c-2.358,1.846-4.461,3.973-6.307,6.383
		c-1.846,2.41-3.384,4.947-4.614,7.614v24.918c0.41,2.769,1.512,5.358,3.307,7.768c1.794,2.41,3.948,4.486,6.46,6.229
		c2.513,1.744,5.23,3.127,8.152,4.153C111.389,181.225,114.184,181.738,116.85,181.738 M119.31,190.966
		c-6.357,0-12.177-1.59-17.457-4.769c-5.281-3.178-9.408-7.28-12.382-12.305v15.535h-9.382V77.144h10.459v48.913
		c3.589-5.435,7.895-9.819,12.92-13.151c5.025-3.333,10.869-4.999,17.535-4.999c5.64,0,10.69,1.18,15.15,3.538
		c4.461,2.358,8.255,5.511,11.383,9.46c3.127,3.947,5.537,8.408,7.229,13.381c1.692,4.973,2.538,10.075,2.538,15.305
		c0,5.64-0.975,10.972-2.923,15.997c-1.949,5.025-4.614,9.408-7.998,13.151c-3.384,3.743-7.409,6.716-12.075,8.921
		C129.642,189.864,124.643,190.966,119.31,190.966z"/>
	<path fill="#0D5CA6" d="M422.724,191c-6.876,0-13.649-1.104-20.32-3.309c-6.671-2.206-12.315-5.414-16.933-9.622l8.775-15.086
		c4.926,3.387,9.723,6.003,14.393,7.85c4.67,1.848,9.159,2.771,13.469,2.771c3.181,0,5.644-0.565,7.389-1.694
		c1.745-1.129,2.617-2.771,2.617-4.926c0-2.155-1.104-3.874-3.31-5.157c-2.206-1.283-6.08-2.643-11.622-4.08
		c-5.439-1.54-10.031-3.027-13.777-4.464c-3.746-1.437-6.799-3.027-9.159-4.772c-2.361-1.744-4.054-3.745-5.08-6.003
		c-1.027-2.258-1.539-4.926-1.539-8.005c0-4.105,0.821-7.851,2.463-11.238c1.642-3.387,3.9-6.26,6.773-8.62
		c2.874-2.36,6.286-4.208,10.237-5.542c3.951-1.333,8.236-2.001,12.854-2.001c6.055,0,11.725,0.821,17.01,2.463
		c5.285,1.641,10.39,4.618,15.316,8.928l-9.544,14.778c-4.619-3.181-8.724-5.491-12.315-6.927
		c-3.592-1.437-7.081-2.155-10.467-2.155c-2.668,0-4.926,0.539-6.773,1.617c-1.848,1.078-2.771,2.797-2.771,5.157
		c0,2.258,1.001,3.951,3.002,5.081c2.001,1.129,5.721,2.36,11.16,3.694c5.747,1.54,10.596,3.079,14.547,4.618
		c3.952,1.54,7.158,3.258,9.621,5.157c2.463,1.899,4.259,4.08,5.388,6.543c1.129,2.463,1.694,5.388,1.694,8.775
		c0,8.004-2.976,14.367-8.929,19.088C440.941,188.639,432.884,191,422.724,191"/>
	<path fill="#0D5CA6" d="M512.525,187.44c-1.726,0.58-3.546,1.14-5.461,1.681c-4.358,1.23-8.742,1.846-13.151,1.846
		c-3.076,0-5.973-0.384-8.69-1.154c-2.717-0.769-5.101-1.999-7.152-3.691c-2.051-1.692-3.666-3.922-4.845-6.691
		c-1.179-2.769-1.768-6.101-1.768-9.998v-42.145h-10.305v-18.611h10.305V77.632h24.61v31.045h16.458v18.611h-16.458v33.685
		c0,5.169,1.161,9.46,7.075,9.46c1.846,0,3.743-0.308,5.692-0.923c1.353-0.428,2.585-0.88,3.691-1.357V187.44z"/>
	<polygon fill="#0D5CA6" points="19.72,156.837 68.285,189.227 68.285,170.642 36.909,148.955 68.285,127.447 68.285,108.863 
		19.72,141.052 	"/>
	<path fill="#0D5CA6" d="M719.912,187.44c-1.726,0.58-3.546,1.14-5.461,1.681c-4.358,1.23-8.742,1.846-13.151,1.846
		c-3.076,0-5.973-0.384-8.69-1.154c-2.717-0.769-5.101-1.999-7.152-3.691c-2.051-1.692-3.666-3.922-4.845-6.691
		c-1.179-2.769-1.769-6.101-1.769-9.998v-42.145h-10.305v-18.611h10.305V77.632h24.61v31.045h16.458v18.611h-16.458v33.685
		c0,5.169,1.161,9.46,7.075,9.46c1.846,0,3.743-0.308,5.692-0.923c1.354-0.428,2.585-0.88,3.692-1.357V187.44z"/>
	<polygon fill="#0D5CA6" points="780.28,156.837 731.716,189.227 731.716,170.642 763.091,148.955 731.716,127.447 731.716,108.863 
		780.28,141.052 	"/>
</g>
<g>
	<path d="M307.242,21.038h4.099v29.218h-4.099V21.038z M309.793,33.918h16.217v3.898h-16.217V33.918z M323.84,21.038h4.1v29.218
		h-4.1V21.038z"/>
	<path d="M340.418,50.557c0,0-0.683-0.361-2.05-1.085c-1.366-0.724-2.408-1.785-3.125-3.185c-0.717-1.4-1.075-3.091-1.075-5.074
		v-2.351c0-2.063,0.345-3.824,1.035-5.285c0.689-1.46,1.691-2.572,3.004-3.336s2.894-1.146,4.743-1.146
		c1.741,0,3.228,0.436,4.461,1.306c1.232,0.871,2.173,2.13,2.823,3.778c0.65,1.648,0.975,3.624,0.975,5.928v1.366h-14.066v-3.295
		h10.168c-0.121-1.701-0.56-3.024-1.316-3.969c-0.757-0.944-1.772-1.417-3.044-1.417c-1.554,0-2.757,0.509-3.607,1.527
		c-0.851,1.019-1.276,2.458-1.276,4.321v2.652c0,1.728,0.455,3.055,1.367,3.979c0.911,0.924,2.203,1.386,3.878,1.386
		c0.831,0,1.655-0.167,2.472-0.502c0.817-0.334,1.547-0.804,2.19-1.406l2.693,2.692c-1.032,0.992-2.19,1.758-3.477,2.301
		c-1.286,0.542-2.579,0.813-3.878,0.813C341.383,50.557,340.418,50.557,340.418,50.557z"/>
	<path d="M362.402,50.557c0,0-0.673-0.354-2.02-1.065c-1.346-0.71-2.375-1.741-3.084-3.095c-0.71-1.353-1.065-2.987-1.065-4.903
		v-3.437c0-1.889,0.355-3.503,1.065-4.843c0.71-1.339,1.738-2.361,3.084-3.064c1.347-0.703,2.971-1.055,4.873-1.055
		c1.085,0,2.107,0.131,3.065,0.392c0.958,0.261,1.818,0.64,2.582,1.135s1.4,1.099,1.909,1.809l-2.954,2.652
		c-0.59-0.669-1.28-1.186-2.07-1.547c-0.791-0.361-1.615-0.542-2.472-0.542c-1.581,0-2.807,0.442-3.677,1.326
		c-0.871,0.884-1.306,2.13-1.306,3.738v3.437c0,1.647,0.432,2.92,1.296,3.818s2.093,1.346,3.688,1.346
		c0.871,0,1.701-0.194,2.492-0.583s1.474-0.938,2.05-1.648l2.954,2.854c-0.522,0.697-1.166,1.29-1.929,1.778
		c-0.764,0.489-1.625,0.861-2.583,1.115c-0.958,0.254-1.973,0.382-3.044,0.382C363.353,50.557,362.402,50.557,362.402,50.557z"/>
	<path d="M377.333,21.038h4.099v29.218h-4.099V21.038z M389.993,37.616c0-1.474-0.382-2.612-1.146-3.416
		c-0.764-0.804-1.835-1.206-3.215-1.206c-1.34,0-2.375,0.349-3.105,1.045c-0.73,0.697-1.095,1.682-1.095,2.954l-0.422-4.019
		c0.643-1.232,1.483-2.187,2.522-2.863c1.038-0.676,2.187-1.015,3.446-1.015c2.264,0,4.016,0.741,5.255,2.221
		c1.239,1.48,1.859,3.574,1.859,6.28v12.66h-4.1V37.616z"/>
	<path d="M403.677,49.492c-1.285-0.71-2.268-1.745-2.943-3.104c-0.677-1.36-1.016-2.998-1.016-4.914v-3.396
		c0-1.889,0.339-3.506,1.016-4.853c0.676-1.347,1.658-2.372,2.943-3.075c1.287-0.703,2.834-1.055,4.643-1.055
		s3.355,0.352,4.641,1.055c1.287,0.703,2.268,1.728,2.945,3.075c0.676,1.346,1.014,2.964,1.014,4.853v3.457
		c0,1.902-0.338,3.527-1.014,4.873c-0.678,1.346-1.658,2.375-2.945,3.084c-1.285,0.71-2.832,1.065-4.641,1.065
		S404.964,50.203,403.677,49.492z M411.646,45.313c0.783-0.897,1.174-2.157,1.174-3.778v-3.457c0-1.621-0.391-2.874-1.174-3.758
		c-0.785-0.884-1.893-1.326-3.326-1.326s-2.543,0.442-3.326,1.326c-0.783,0.884-1.176,2.137-1.176,3.758v3.457
		c0,1.621,0.393,2.88,1.176,3.778s1.893,1.346,3.326,1.346S410.861,46.21,411.646,45.313z"/>
	<path d="M433.799,29.397h4.1v29.338h-4.1V29.397z M439.748,49.623c-0.964-0.623-1.675-1.504-2.13-2.643l0.281-4.361
		c0,0.898,0.161,1.662,0.482,2.291c0.321,0.63,0.787,1.112,1.396,1.447c0.609,0.335,1.35,0.502,2.221,0.502
		c1.353,0,2.401-0.412,3.145-1.236c0.744-0.824,1.115-1.986,1.115-3.486v-4.521c0-1.527-0.371-2.713-1.115-3.557
		c-0.743-0.844-1.792-1.266-3.145-1.266c-0.871,0-1.611,0.161-2.221,0.482c-0.609,0.322-1.075,0.794-1.396,1.417
		s-0.482,1.37-0.482,2.241l-0.422-4.019c0.63-1.219,1.453-2.16,2.472-2.824c1.018-0.663,2.15-0.995,3.396-0.995
		c1.473,0,2.735,0.332,3.787,0.995c1.052,0.664,1.853,1.631,2.401,2.904c0.55,1.273,0.824,2.807,0.824,4.602v4.542
		c0,1.768-0.281,3.282-0.844,4.542s-1.387,2.22-2.472,2.883s-2.385,0.995-3.898,0.995C441.844,50.557,440.712,50.246,439.748,49.623
		z"/>
	<path d="M459.542,49.492c-1.286-0.71-2.268-1.745-2.944-3.104s-1.015-2.998-1.015-4.914v-3.396c0-1.889,0.338-3.506,1.015-4.853
		c0.677-1.347,1.658-2.372,2.944-3.075s2.833-1.055,4.642-1.055s3.356,0.352,4.642,1.055c1.286,0.703,2.268,1.728,2.944,3.075
		c0.677,1.346,1.015,2.964,1.015,4.853v3.457c0,1.902-0.338,3.527-1.015,4.873s-1.658,2.375-2.944,3.084
		c-1.285,0.71-2.833,1.065-4.642,1.065S460.828,50.203,459.542,49.492z M467.509,45.313c0.783-0.897,1.175-2.157,1.175-3.778v-3.457
		c0-1.621-0.392-2.874-1.175-3.758c-0.784-0.884-1.893-1.326-3.326-1.326s-2.542,0.442-3.325,1.326
		c-0.784,0.884-1.176,2.137-1.176,3.758v3.457c0,1.621,0.392,2.88,1.176,3.778c0.783,0.897,1.892,1.346,3.325,1.346
		S466.725,46.21,467.509,45.313z"/>
	<path d="M478.611,29.397h4.1v20.858h-4.1V29.397z M488.719,33.336c-0.55-0.228-1.186-0.342-1.909-0.342
		c-1.3,0-2.308,0.359-3.024,1.075c-0.717,0.717-1.075,1.711-1.075,2.984l-0.422-4.019c0.643-1.246,1.474-2.214,2.492-2.904
		c1.018-0.69,2.143-1.035,3.376-1.035c0.95,0,1.812,0.138,2.582,0.412c0.77,0.275,1.443,0.68,2.02,1.216l-2.673,3.617
		C489.724,33.898,489.268,33.564,488.719,33.336z"/>
</g>
</svg>
