<?xml version="1.0" encoding="utf-8"?>
<!-- Generator: Adobe Illustrator 17.0.0, SVG Export Plug-In . SVG Version: 6.00 Build 0)  -->
<!DOCTYPE svg PUBLIC "-//W3C//DTD SVG 1.1//EN" "http://www.w3.org/Graphics/SVG/1.1/DTD/svg11.dtd">
<svg version="1.1" id="Capa_1" xmlns="http://www.w3.org/2000/svg" xmlns:xlink="http://www.w3.org/1999/xlink" x="0px" y="0px"
	 width="300px" height="300px" viewBox="0 0 300 300" enable-background="new 0 0 300 300" xml:space="preserve">
<g>
	<path fill="#0D5CA6" d="M108.045,200.659c4.734,0,9.054-0.964,12.962-2.89c3.909-1.926,7.266-4.513,10.073-7.761
		c2.807-3.247,5.008-6.935,6.605-11.063c1.596-4.128,2.394-8.394,2.394-12.798c0-4.513-0.743-8.861-2.229-13.045
		c-1.486-4.183-3.578-7.899-6.275-11.146c-2.697-3.247-5.944-5.834-9.743-7.761c-3.798-1.926-7.954-2.889-12.467-2.889
		c-3.413,0-6.605,0.578-9.577,1.734c-2.973,1.155-5.724,2.725-8.256,4.707c-2.532,1.982-4.789,4.265-6.77,6.852
		c-1.981,2.587-3.633,5.311-4.954,8.174v26.75c0.441,2.972,1.624,5.752,3.55,8.339c1.926,2.587,4.239,4.816,6.935,6.687
		c2.698,1.872,5.615,3.358,8.752,4.459C102.183,200.107,105.183,200.659,108.045,200.659 M110.687,210.566
		c-6.824,0-13.072-1.707-18.741-5.119c-5.67-3.412-10.1-7.815-13.292-13.21v16.678H68.58V88.372h11.228v52.511
		c3.853-5.835,8.476-10.541,13.871-14.118c5.394-3.578,11.669-5.367,18.824-5.367c6.055,0,11.476,1.266,16.265,3.798
		c4.789,2.532,8.863,5.917,12.22,10.156c3.357,4.238,5.944,9.027,7.761,14.365c1.816,5.339,2.725,10.816,2.725,16.43
		c0,6.055-1.046,11.779-3.137,17.174c-2.092,5.394-4.954,10.1-8.587,14.119c-3.633,4.018-7.954,7.21-12.963,9.577
		C121.779,209.383,116.412,210.566,110.687,210.566z"/>
	<path fill="#0D5CA6" d="M199.881,210.602c-7.382,0-14.653-1.185-21.814-3.553c-7.162-2.369-13.221-5.812-18.178-10.329l9.42-16.195
		c5.288,3.636,10.439,6.445,15.452,8.428c5.013,1.984,9.833,2.975,14.46,2.975c3.415,0,6.059-0.607,7.933-1.818
		c1.873-1.212,2.81-2.974,2.81-5.288c0-2.313-1.185-4.158-3.554-5.536c-2.368-1.377-6.528-2.837-12.477-4.38
		c-5.839-1.653-10.769-3.25-14.79-4.793c-4.022-1.542-7.299-3.25-9.833-5.123c-2.534-1.872-4.352-4.021-5.454-6.444
		c-1.102-2.424-1.653-5.289-1.653-8.594c0-4.407,0.882-8.428,2.644-12.064c1.763-3.636,4.187-6.72,7.272-9.255
		c3.085-2.534,6.748-4.518,10.99-5.95c4.242-1.431,8.842-2.148,13.8-2.148c6.5,0,12.587,0.881,18.261,2.644
		c5.674,1.763,11.155,4.958,16.443,9.585l-10.246,15.865c-4.958-3.415-9.365-5.895-13.221-7.437
		c-3.856-1.542-7.602-2.314-11.237-2.314c-2.865,0-5.288,0.578-7.272,1.735c-1.984,1.157-2.975,3.002-2.975,5.536
		c0,2.424,1.074,4.242,3.223,5.454c2.148,1.212,6.142,2.534,11.981,3.966c6.17,1.653,11.376,3.305,15.617,4.958
		c4.242,1.653,7.685,3.498,10.329,5.536c2.644,2.039,4.572,4.38,5.784,7.024c1.212,2.644,1.818,5.784,1.818,9.42
		c0,8.593-3.195,15.424-9.586,20.492C219.437,208.068,210.788,210.602,199.881,210.602"/>
	<polygon fill="#0D5CA6" points="3.987,173.926 56.124,208.699 56.124,188.747 22.44,165.465 56.124,142.375 56.124,122.423 
		3.987,156.98 	"/>
	<polygon fill="#0D5CA6" points="295.902,173.926 243.766,208.699 243.766,188.747 277.449,165.465 243.766,142.375 
		243.766,122.423 295.902,156.98 	"/>
</g>
</svg>
