<?xml version="1.0" encoding="iso-8859-1"?>
<!-- Generator: Adobe Illustrator 17.0.0, SVG Export Plug-In . SVG Version: 6.00 Build 0)  -->
<!DOCTYPE svg PUBLIC "-//W3C//DTD SVG 1.1//EN" "http://www.w3.org/Graphics/SVG/1.1/DTD/svg11.dtd">
<svg version="1.1" xmlns="http://www.w3.org/2000/svg" xmlns:xlink="http://www.w3.org/1999/xlink" x="0px" y="0px" width="350px"
	 height="280px" viewBox="0 0 350 280" style="enable-background:new 0 0 350 280;" xml:space="preserve">
<g id="Capa_1">
	<g>
		<g>
			<path style="fill:#4582EC;stroke:#4582EC;stroke-width:1.9225;stroke-miterlimit:10;" d="M95.465,34.431
				c0,0.741-0.148,1.422-0.444,2.042c-0.296,0.621-0.694,1.158-1.194,1.611c-0.5,0.454-1.083,0.806-1.75,1.056
				c-0.667,0.25-1.379,0.375-2.139,0.375h-9.306V19.792h9.5c0.685,0,1.306,0.148,1.861,0.445s1.028,0.68,1.417,1.153
				c0.389,0.472,0.69,1.009,0.903,1.611c0.213,0.602,0.319,1.208,0.319,1.82c0,1-0.25,1.912-0.75,2.736
				c-0.5,0.824-1.194,1.44-2.083,1.848c1.129,0.333,2.023,0.954,2.681,1.861S95.465,33.228,95.465,34.431z M82.576,21.487v7.278
				h6.778c0.481,0,0.931-0.102,1.347-0.306c0.417-0.204,0.773-0.472,1.07-0.805c0.296-0.333,0.528-0.718,0.694-1.153
				s0.25-0.894,0.25-1.375c0-0.5-0.079-0.972-0.236-1.417s-0.379-0.829-0.667-1.153c-0.288-0.324-0.625-0.583-1.014-0.778
				c-0.389-0.194-0.815-0.292-1.278-0.292H82.576z M93.521,34.098c0-0.481-0.083-0.948-0.25-1.402
				c-0.167-0.454-0.403-0.852-0.708-1.195c-0.306-0.342-0.667-0.62-1.083-0.833c-0.417-0.213-0.866-0.319-1.347-0.319h-7.556v7.473
				h7.361c0.5,0,0.967-0.102,1.403-0.306c0.435-0.204,0.814-0.477,1.139-0.819c0.324-0.343,0.579-0.74,0.764-1.194
				C93.428,35.047,93.521,34.58,93.521,34.098z"/>
			<path style="fill:#4582EC;stroke:#4582EC;stroke-width:1.9225;stroke-miterlimit:10;" d="M103.271,39.792
				c-1.574,0-2.746-0.522-3.514-1.569c-0.769-1.046-1.153-2.606-1.153-4.681v-8.5h1.889v8.167c0,3.277,1.12,4.917,3.361,4.917
				c0.556,0,1.102-0.093,1.639-0.278c0.537-0.185,1.032-0.453,1.486-0.806c0.454-0.352,0.861-0.768,1.222-1.25
				c0.361-0.481,0.653-1.027,0.875-1.639v-9.111h1.889v12.028c0,0.519,0.222,0.777,0.667,0.777v1.667
				c-0.222,0.037-0.403,0.056-0.542,0.056c-0.139,0-0.236,0-0.292,0c-0.445-0.019-0.806-0.176-1.083-0.473
				c-0.278-0.296-0.417-0.694-0.417-1.194v-1.667c-0.629,1.13-1.486,2.005-2.569,2.626
				C105.646,39.483,104.493,39.792,103.271,39.792z"/>
			<path style="fill:#4582EC;stroke:#4582EC;stroke-width:1.9225;stroke-miterlimit:10;" d="M120.049,39.792
				c-1.13,0-2.232-0.185-3.306-0.555c-1.074-0.371-2-0.907-2.778-1.611l0.861-1.278c0.815,0.667,1.644,1.167,2.486,1.5
				c0.843,0.334,1.746,0.5,2.708,0.5c1.167,0,2.097-0.235,2.792-0.708c0.694-0.473,1.042-1.144,1.042-2.014
				c0-0.407-0.093-0.746-0.278-1.015c-0.185-0.268-0.458-0.504-0.819-0.708c-0.361-0.203-0.815-0.384-1.361-0.542
				c-0.546-0.157-1.181-0.319-1.903-0.485c-0.833-0.204-1.556-0.407-2.167-0.611c-0.611-0.204-1.116-0.436-1.514-0.694
				c-0.398-0.26-0.694-0.579-0.889-0.959c-0.195-0.379-0.292-0.856-0.292-1.43c0-0.723,0.144-1.362,0.431-1.917
				s0.676-1.014,1.167-1.375s1.065-0.634,1.723-0.819c0.657-0.185,1.356-0.278,2.097-0.278c1.111,0,2.12,0.181,3.028,0.542
				c0.907,0.361,1.639,0.838,2.194,1.431l-0.917,1.111c-0.537-0.556-1.19-0.973-1.958-1.25c-0.769-0.278-1.569-0.417-2.403-0.417
				c-0.5,0-0.963,0.051-1.389,0.153c-0.426,0.102-0.801,0.264-1.125,0.486c-0.324,0.222-0.579,0.505-0.764,0.847
				c-0.186,0.343-0.278,0.746-0.278,1.208c0,0.389,0.065,0.704,0.194,0.944c0.129,0.241,0.343,0.449,0.639,0.625
				c0.296,0.176,0.671,0.333,1.125,0.473c0.454,0.139,1.004,0.282,1.653,0.43c0.926,0.223,1.741,0.445,2.444,0.667
				c0.704,0.223,1.292,0.482,1.764,0.778s0.829,0.657,1.069,1.083s0.361,0.944,0.361,1.556c0,1.333-0.51,2.389-1.528,3.167
				C123.142,39.404,121.771,39.792,120.049,39.792z"/>
			<path style="fill:#4582EC;stroke:#4582EC;stroke-width:1.9225;stroke-miterlimit:10;" d="M127.771,32.237
				c0-1.018,0.176-1.981,0.528-2.889c0.352-0.907,0.847-1.699,1.486-2.375c0.639-0.676,1.403-1.208,2.292-1.598
				c0.889-0.389,1.87-0.583,2.944-0.583c1.371,0,2.565,0.31,3.583,0.931s1.787,1.458,2.306,2.514l-1.833,0.583
				c-0.407-0.741-0.977-1.319-1.708-1.736c-0.732-0.417-1.542-0.625-2.431-0.625c-0.741,0-1.431,0.148-2.07,0.444
				c-0.639,0.297-1.194,0.7-1.667,1.208c-0.472,0.51-0.843,1.116-1.111,1.819c-0.269,0.704-0.403,1.473-0.403,2.306
				c0,0.815,0.139,1.584,0.417,2.306c0.278,0.723,0.657,1.348,1.139,1.875c0.481,0.528,1.042,0.944,1.681,1.25
				c0.639,0.306,1.319,0.459,2.042,0.459c0.462,0,0.921-0.064,1.375-0.194c0.454-0.13,0.875-0.311,1.264-0.542
				c0.389-0.231,0.722-0.495,1-0.792c0.278-0.296,0.472-0.611,0.583-0.944l1.861,0.556c-0.204,0.519-0.5,0.996-0.889,1.431
				c-0.389,0.436-0.847,0.815-1.375,1.139c-0.528,0.324-1.111,0.574-1.75,0.75c-0.639,0.176-1.301,0.264-1.986,0.264
				c-1.056,0-2.028-0.199-2.917-0.597c-0.889-0.398-1.658-0.944-2.306-1.639c-0.648-0.695-1.153-1.496-1.514-2.403
				C127.952,34.247,127.771,33.275,127.771,32.237z"/>
			<path style="fill:#4582EC;stroke:#4582EC;stroke-width:1.9225;stroke-miterlimit:10;" d="M150.05,39.792
				c-1.056,0-2.019-0.199-2.889-0.597c-0.871-0.398-1.625-0.939-2.264-1.625c-0.639-0.686-1.134-1.481-1.486-2.389
				c-0.352-0.907-0.528-1.861-0.528-2.861c0-1.019,0.181-1.981,0.542-2.889c0.361-0.908,0.861-1.704,1.5-2.39
				c0.639-0.685,1.394-1.231,2.264-1.639c0.87-0.407,1.824-0.611,2.861-0.611c1.037,0,1.995,0.204,2.875,0.611
				c0.879,0.408,1.639,0.954,2.278,1.639c0.639,0.686,1.139,1.482,1.5,2.39c0.361,0.907,0.542,1.87,0.542,2.889
				c0,1-0.176,1.954-0.528,2.861s-0.847,1.703-1.486,2.389c-0.639,0.686-1.398,1.227-2.278,1.625
				C152.073,39.593,151.105,39.792,150.05,39.792z M144.8,32.348c0,0.815,0.139,1.569,0.417,2.264
				c0.278,0.695,0.653,1.306,1.125,1.834c0.472,0.527,1.028,0.939,1.667,1.236c0.639,0.296,1.319,0.444,2.042,0.444
				c0.722,0,1.403-0.153,2.042-0.459c0.639-0.306,1.199-0.722,1.681-1.25c0.481-0.527,0.861-1.143,1.139-1.847
				c0.277-0.704,0.417-1.463,0.417-2.278c0-0.796-0.139-1.551-0.417-2.264c-0.278-0.713-0.658-1.333-1.139-1.861
				c-0.482-0.528-1.042-0.944-1.681-1.25c-0.639-0.306-1.319-0.458-2.042-0.458c-0.723,0-1.398,0.153-2.028,0.458
				c-0.63,0.306-1.186,0.727-1.667,1.264c-0.482,0.538-0.861,1.163-1.139,1.875C144.939,30.77,144.8,31.534,144.8,32.348z"/>
			<path style="fill:#4582EC;stroke:#4582EC;stroke-width:1.9225;stroke-miterlimit:10;" d="M171.634,21.515h-7.028v18h-1.944v-18
				h-7.028v-1.723h16V21.515z"/>
			<path style="fill:#4582EC;stroke:#4582EC;stroke-width:1.9225;stroke-miterlimit:10;" d="M178.356,26.709
				c-1.277,0.038-2.389,0.389-3.333,1.056c-0.945,0.667-1.611,1.583-2,2.75v9h-1.889V25.042h1.778v3.472
				c0.537-1.111,1.259-1.981,2.167-2.611c0.907-0.629,1.879-0.944,2.917-0.944c0.148,0,0.269,0.01,0.361,0.028V26.709z"/>
			<path style="fill:#4582EC;stroke:#4582EC;stroke-width:1.9225;stroke-miterlimit:10;" d="M184.329,39.792
				c-0.686,0-1.319-0.115-1.902-0.347c-0.584-0.231-1.094-0.551-1.528-0.958c-0.436-0.407-0.773-0.885-1.014-1.431
				c-0.241-0.547-0.361-1.135-0.361-1.765c0-0.629,0.148-1.213,0.444-1.75s0.713-1,1.25-1.389s1.176-0.689,1.917-0.903
				c0.74-0.212,1.556-0.319,2.444-0.319c0.74,0,1.491,0.065,2.251,0.194c0.758,0.13,1.434,0.315,2.027,0.556v-1.306
				c0-1.277-0.361-2.292-1.084-3.042s-1.723-1.125-3-1.125c-0.741,0-1.5,0.148-2.277,0.444c-0.778,0.297-1.565,0.723-2.361,1.278
				l-0.667-1.25c1.87-1.259,3.686-1.889,5.444-1.889c1.814,0,3.242,0.509,4.279,1.528s1.555,2.426,1.555,4.222v6.528
				c0,0.519,0.232,0.777,0.695,0.777v1.667c-0.316,0.056-0.557,0.083-0.723,0.083c-0.482,0-0.857-0.12-1.125-0.36
				c-0.27-0.241-0.412-0.574-0.432-1l-0.055-1.14c-0.666,0.871-1.506,1.538-2.514,2C186.584,39.561,185.496,39.792,184.329,39.792z
				 M184.773,38.348c0.981,0,1.885-0.185,2.709-0.556c0.824-0.37,1.449-0.86,1.875-1.472c0.166-0.167,0.291-0.348,0.375-0.542
				s0.125-0.375,0.125-0.542v-2.36c-0.629-0.241-1.283-0.426-1.959-0.556s-1.365-0.195-2.069-0.195c-1.333,0-2.417,0.278-3.25,0.834
				s-1.25,1.287-1.25,2.194c0,0.444,0.088,0.861,0.264,1.25s0.417,0.728,0.723,1.014c0.306,0.288,0.671,0.515,1.097,0.681
				C183.838,38.265,184.292,38.348,184.773,38.348z"/>
			<path style="fill:#4582EC;stroke:#4582EC;stroke-width:1.9225;stroke-miterlimit:10;" d="M202.913,39.792
				c-1.148,0-2.199-0.286-3.153-0.86c-0.953-0.574-1.699-1.315-2.235-2.223v2.806h-1.695V19.237h1.89v8.833
				c0.647-0.981,1.426-1.773,2.333-2.375c0.907-0.602,1.963-0.903,3.167-0.903c1.019,0,1.931,0.213,2.736,0.639
				c0.806,0.426,1.49,0.996,2.056,1.708c0.564,0.713,1,1.519,1.306,2.417c0.306,0.898,0.458,1.819,0.458,2.765
				c0,1.019-0.176,1.981-0.527,2.889c-0.353,0.907-0.834,1.699-1.445,2.375c-0.61,0.677-1.338,1.213-2.181,1.611
				C204.778,39.593,203.876,39.792,202.913,39.792z M202.469,38.126c0.796,0,1.523-0.162,2.181-0.486s1.222-0.759,1.694-1.306
				c0.473-0.546,0.843-1.167,1.111-1.861s0.402-1.412,0.402-2.152c0-0.76-0.125-1.491-0.375-2.195
				c-0.25-0.703-0.602-1.328-1.056-1.875s-1-0.981-1.639-1.306c-0.639-0.324-1.338-0.486-2.098-0.486
				c-0.574,0-1.11,0.097-1.61,0.292c-0.5,0.194-0.964,0.458-1.39,0.792s-0.806,0.718-1.139,1.153
				c-0.333,0.436-0.611,0.894-0.833,1.375v4.5c0.073,0.5,0.272,0.968,0.597,1.402c0.324,0.436,0.713,0.811,1.167,1.125
				c0.453,0.315,0.944,0.565,1.473,0.75C201.482,38.034,201.987,38.126,202.469,38.126z"/>
			<path style="fill:#4582EC;stroke:#4582EC;stroke-width:1.9225;stroke-miterlimit:10;" d="M216.608,39.792
				c-0.686,0-1.319-0.115-1.903-0.347c-0.583-0.231-1.093-0.551-1.527-0.958c-0.436-0.407-0.773-0.885-1.015-1.431
				c-0.24-0.547-0.36-1.135-0.36-1.765c0-0.629,0.147-1.213,0.444-1.75c0.296-0.537,0.713-1,1.25-1.389s1.176-0.689,1.917-0.903
				c0.74-0.212,1.556-0.319,2.444-0.319c0.74,0,1.49,0.065,2.25,0.194c0.759,0.13,1.435,0.315,2.027,0.556v-1.306
				c0-1.277-0.36-2.292-1.083-3.042s-1.723-1.125-3-1.125c-0.741,0-1.5,0.148-2.278,0.444c-0.777,0.297-1.564,0.723-2.36,1.278
				l-0.667-1.25c1.87-1.259,3.685-1.889,5.444-1.889c1.814,0,3.241,0.509,4.278,1.528s1.556,2.426,1.556,4.222v6.528
				c0,0.519,0.231,0.777,0.694,0.777v1.667c-0.315,0.056-0.556,0.083-0.723,0.083c-0.481,0-0.856-0.12-1.125-0.36
				c-0.269-0.241-0.412-0.574-0.431-1l-0.056-1.14c-0.666,0.871-1.505,1.538-2.514,2C218.862,39.561,217.774,39.792,216.608,39.792z
				 M217.053,38.348c0.981,0,1.884-0.185,2.708-0.556c0.824-0.37,1.449-0.86,1.875-1.472c0.167-0.167,0.292-0.348,0.375-0.542
				c0.084-0.194,0.125-0.375,0.125-0.542v-2.36c-0.629-0.241-1.282-0.426-1.958-0.556s-1.366-0.195-2.069-0.195
				c-1.334,0-2.417,0.278-3.25,0.834c-0.834,0.556-1.25,1.287-1.25,2.194c0,0.444,0.087,0.861,0.264,1.25
				c0.176,0.389,0.417,0.728,0.722,1.014c0.306,0.288,0.672,0.515,1.098,0.681C216.117,38.265,216.571,38.348,217.053,38.348z"/>
			<path style="fill:#4582EC;stroke:#4582EC;stroke-width:1.9225;stroke-miterlimit:10;" d="M225.941,44.543
				c-0.611,0-1.186-0.084-1.723-0.25c-0.537-0.167-1.019-0.445-1.444-0.834l0.917-1.277c0.296,0.259,0.62,0.435,0.972,0.527
				c0.353,0.093,0.704,0.139,1.056,0.139c0.333,0,0.653-0.064,0.958-0.194c0.306-0.13,0.579-0.31,0.82-0.541
				c0.24-0.232,0.435-0.505,0.583-0.819c0.148-0.315,0.223-0.658,0.223-1.028V25.042h1.889v15.111c0,0.648-0.121,1.241-0.361,1.778
				c-0.241,0.537-0.561,1-0.958,1.389c-0.398,0.389-0.853,0.689-1.361,0.903C227.001,44.436,226.478,44.543,225.941,44.543z
				 M228.303,22.015v-2.778h1.889v2.778H228.303z"/>
			<path style="fill:#4582EC;stroke:#4582EC;stroke-width:1.9225;stroke-miterlimit:10;" d="M240.524,39.792
				c-1.056,0-2.019-0.199-2.889-0.597c-0.871-0.398-1.625-0.939-2.264-1.625c-0.64-0.686-1.135-1.481-1.486-2.389
				c-0.353-0.907-0.528-1.861-0.528-2.861c0-1.019,0.181-1.981,0.542-2.889c0.361-0.908,0.861-1.704,1.5-2.39
				c0.639-0.685,1.394-1.231,2.264-1.639c0.871-0.407,1.824-0.611,2.861-0.611s1.996,0.204,2.875,0.611
				c0.88,0.408,1.64,0.954,2.278,1.639c0.639,0.686,1.139,1.482,1.5,2.39c0.361,0.907,0.542,1.87,0.542,2.889
				c0,1-0.177,1.954-0.528,2.861s-0.847,1.703-1.486,2.389c-0.639,0.686-1.398,1.227-2.277,1.625
				C242.548,39.593,241.58,39.792,240.524,39.792z M235.274,32.348c0,0.815,0.139,1.569,0.417,2.264
				c0.277,0.695,0.652,1.306,1.125,1.834c0.472,0.527,1.027,0.939,1.667,1.236c0.639,0.296,1.319,0.444,2.041,0.444
				c0.723,0,1.403-0.153,2.042-0.459s1.199-0.722,1.681-1.25c0.481-0.527,0.861-1.143,1.139-1.847
				c0.278-0.704,0.417-1.463,0.417-2.278c0-0.796-0.139-1.551-0.417-2.264c-0.277-0.713-0.657-1.333-1.139-1.861
				s-1.042-0.944-1.681-1.25s-1.319-0.458-2.042-0.458c-0.722,0-1.398,0.153-2.027,0.458c-0.63,0.306-1.186,0.727-1.667,1.264
				c-0.481,0.538-0.861,1.163-1.139,1.875C235.413,30.77,235.274,31.534,235.274,32.348z"/>
			<path style="fill:#4582EC;stroke:#4582EC;stroke-width:1.9225;stroke-miterlimit:10;" d="M249.97,29.514
				c0-1.185,0.208-2.365,0.625-3.541c0.416-1.176,1.022-2.227,1.819-3.153c0.796-0.926,1.777-1.681,2.944-2.264
				s2.49-0.875,3.973-0.875c1.759,0,3.264,0.398,4.514,1.194c1.25,0.796,2.171,1.833,2.765,3.111l-1.528,0.944
				c-0.315-0.648-0.699-1.194-1.152-1.639c-0.454-0.445-0.94-0.806-1.459-1.083s-1.056-0.477-1.611-0.597
				c-0.556-0.12-1.102-0.181-1.639-0.181c-1.186,0-2.231,0.241-3.139,0.722c-0.908,0.482-1.672,1.111-2.292,1.889
				c-0.621,0.778-1.088,1.653-1.403,2.625c-0.314,0.972-0.472,1.958-0.472,2.958c0,1.094,0.189,2.14,0.569,3.14
				c0.379,1,0.898,1.885,1.556,2.652c0.657,0.769,1.435,1.38,2.333,1.834s1.875,0.681,2.931,0.681c0.556,0,1.125-0.07,1.709-0.209
				c0.583-0.139,1.147-0.361,1.694-0.666c0.546-0.306,1.051-0.686,1.514-1.14c0.463-0.453,0.852-1.004,1.167-1.652l1.611,0.833
				c-0.315,0.741-0.76,1.394-1.334,1.959c-0.574,0.564-1.213,1.041-1.916,1.431c-0.704,0.389-1.449,0.685-2.236,0.889
				c-0.787,0.203-1.561,0.306-2.319,0.306c-1.353,0-2.594-0.296-3.723-0.89c-1.13-0.592-2.103-1.365-2.917-2.319
				c-0.815-0.953-1.449-2.037-1.902-3.25C250.196,32.01,249.97,30.774,249.97,29.514z"/>
			<path style="fill:#4582EC;stroke:#4582EC;stroke-width:1.9225;stroke-miterlimit:10;" d="M276.165,19.792h1.639l8.194,19.723
				h-2.056l-2.556-6.167h-8.861l-2.527,6.167h-2.084L276.165,19.792z M280.942,31.821l-3.972-9.751l-4.028,9.751H280.942z"/>
			<path style="fill:#4582EC;stroke:#4582EC;stroke-width:1.9225;stroke-miterlimit:10;" d="M303.666,34.431
				c0,0.741-0.148,1.422-0.445,2.042c-0.296,0.621-0.694,1.158-1.194,1.611c-0.5,0.454-1.083,0.806-1.75,1.056
				c-0.666,0.25-1.38,0.375-2.139,0.375h-9.306V19.792h9.5c0.685,0,1.306,0.148,1.861,0.445s1.027,0.68,1.417,1.153
				c0.389,0.472,0.689,1.009,0.902,1.611c0.213,0.602,0.319,1.208,0.319,1.82c0,1-0.25,1.912-0.75,2.736
				c-0.5,0.824-1.194,1.44-2.083,1.848c1.129,0.333,2.022,0.954,2.681,1.861C303.337,32.172,303.666,33.228,303.666,34.431z
				 M290.776,21.487v7.278h6.778c0.48,0,0.93-0.102,1.347-0.306c0.417-0.204,0.773-0.472,1.069-0.805
				c0.296-0.333,0.528-0.718,0.694-1.153c0.167-0.435,0.25-0.894,0.25-1.375c0-0.5-0.078-0.972-0.235-1.417
				c-0.158-0.444-0.38-0.829-0.667-1.153c-0.287-0.324-0.625-0.583-1.014-0.778c-0.39-0.194-0.815-0.292-1.278-0.292H290.776z
				 M301.721,34.098c0-0.481-0.083-0.948-0.25-1.402c-0.166-0.454-0.402-0.852-0.708-1.195c-0.306-0.342-0.667-0.62-1.083-0.833
				c-0.417-0.213-0.866-0.319-1.348-0.319h-7.556v7.473h7.361c0.5,0,0.968-0.102,1.402-0.306c0.436-0.204,0.815-0.477,1.14-0.819
				c0.323-0.343,0.578-0.74,0.764-1.194C301.628,35.047,301.721,34.58,301.721,34.098z"/>
			<path style="fill:#4582EC;stroke:#4582EC;stroke-width:1.9225;stroke-miterlimit:10;" d="M313.027,19.792h1.639l8.194,19.723
				h-2.056l-2.556-6.167h-8.861l-2.527,6.167h-2.084L313.027,19.792z M317.805,31.821l-3.972-9.751l-4.028,9.751H317.805z"/>
		</g>
		<g>
			<g>
				<path style="fill:#4582EC;stroke:#4582EC;stroke-width:0.1;stroke-miterlimit:10;" d="M65.306,24.451
					c-0.907-0.121-1.909,0.105-2.844,0.286c-0.966-2.366-2.025-4.691-3.167-6.957c-0.72-1.429-1.565-3.692-2.962-4.637
					c-1.929-1.306-4.107,0.856-5.317,2.183c-5.157,5.651-9.859,11.614-16.767,15.271c-0.065,0.034-0.117,0.074-0.164,0.117
					c-1.946,0.595-3.887,1.206-5.819,1.848c-1.244,0.413-2.939,0.692-3.966,1.606c-1.764,1.569-0.587,4.985,0.11,6.776
					c0.657,1.688,2.184,5.091,4.149,5.67c0.538,0.158,1.175,0.073,1.812-0.087c1.168,2.424,2.232,4.916,3.58,7.248
					c0.868,1.502,1.747,3.5,3.776,2.828c2.116-0.7,4.781-2.86,4.137-5.358c-0.326-1.262-1.479-2.204-2.196-3.228
					c-0.794-1.134-1.413-2.361-1.996-3.61c0.314-0.099,0.628-0.197,0.941-0.298c3.964-0.772,7.951-1.168,11.978-0.723
					c3.584,0.396,7.086,1.342,10.606,2.092c1.734,0.369,5.04,1.737,6.231-0.364c1.217-2.145-0.389-6.157-0.942-8.288
					c-0.376-1.448-0.795-2.891-1.243-4.326c0.973-0.654,2.178-1.273,2.653-2.367c0.501-1.154,0.002-2.427-0.485-3.493
					C66.997,25.725,66.404,24.597,65.306,24.451z M27.421,43.397c-0.583-0.811-1.049-1.678-1.439-2.594
					c-0.39-0.917-0.69-1.854-0.868-2.837c-0.381-2.106,0.799-3.031,2.615-3.642c2.194-0.739,4.401-1.439,6.615-2.117
					c1.117,3.541,2.302,7.059,3.555,10.554c-1.964,0.631-3.941,1.216-5.941,1.724C30.097,44.958,28.69,45.162,27.421,43.397z
					 M39.218,49.287c0.201,0.264,0.519,0.604,0.681,0.858c0.979,1.536,1,2.481-0.294,3.911c-0.345,0.381-1.017,0.808-1.466,1.023
					c-0.441,0.211-0.766,0.323-1.055,0.331c0.209-0.358,0.381-0.736,0.516-1.131c0.235-0.688-0.853-0.983-1.087-0.3
					c-0.113,0.332-0.266,0.642-0.446,0.938c-0.049-0.046-0.095-0.086-0.147-0.139c-0.105-0.108-0.204-0.227-0.301-0.348
					c0.011-0.023,0.024-0.045,0.032-0.071c0.082-0.241,0.236-0.455,0.35-0.682c0.139-0.278,0.257-0.568,0.359-0.862
					c0.237-0.687-0.851-0.982-1.087-0.3c-0.1,0.29-0.243,0.558-0.383,0.828c-0.149-0.263-0.288-0.536-0.424-0.811
					c0.002-0.004,0.006-0.005,0.007-0.009c0.258-0.564,0.516-1.129,0.775-1.693c0.127-0.276,0.079-0.607-0.202-0.771
					c-0.242-0.142-0.644-0.076-0.771,0.202c-0.144,0.316-0.289,0.631-0.433,0.947c-0.102-0.22-0.203-0.434-0.303-0.636
					c-0.052-0.105-0.1-0.212-0.152-0.318c0.042-0.038,0.082-0.083,0.116-0.14c0.251-0.432,0.502-0.865,0.754-1.298
					c0.365-0.628-0.609-1.196-0.973-0.569c-0.157,0.269-0.313,0.539-0.469,0.808c-0.141-0.299-0.288-0.596-0.428-0.895
					c0.041-0.036,0.082-0.072,0.116-0.116c0.225-0.296,0.442-0.597,0.652-0.903c0.172-0.251,0.047-0.625-0.202-0.771
					c-0.279-0.163-0.599-0.05-0.771,0.202c-0.106,0.155-0.22,0.305-0.33,0.458c-0.13-0.275-0.259-0.551-0.39-0.825
					c0.32-0.103,0.623-0.202,0.895-0.271c1.422-0.362,2.833-0.764,4.236-1.191C37.339,46.34,38.143,47.872,39.218,49.287z
					 M60.039,43.687c-3.239-0.716-6.471-1.512-9.778-1.841c-3.784-0.376-7.534-0.012-11.256,0.669
					c-1.285-3.582-2.499-7.188-3.641-10.819c6.208-3.389,11.035-8.682,15.585-13.996c0.526-0.615,1.361-1.793,2.293-2.58
					c2.685,4.021,4.439,9.029,6.197,13.466c2.018,5.091,3.696,10.629,4.662,16.05C62.717,44.534,61.01,43.902,60.039,43.687z
					 M66.27,43.22c-0.051,0.781-0.458,1.173-1.043,1.336c-0.983-5.623-2.729-11.348-4.845-16.626
					c-1.782-4.446-3.503-9.405-6.195-13.42c0.492-0.213,0.991-0.25,1.471,0.025c0.638,0.366,1.184,1.82,1.52,2.433
					c1.56,2.847,2.868,5.845,4.069,8.858c1.435,3.6,2.702,7.276,3.696,11.023C65.443,38.735,66.399,41.255,66.27,43.22z
					 M66.62,30.06c-0.39,0.557-1.098,0.947-1.725,1.333c-0.611-1.878-1.283-3.74-2.009-5.58c0.448-0.074,0.896-0.147,1.348-0.194
					c1.1-0.116,1.52,0.2,2.036,1.216C66.761,27.803,67.329,29.047,66.62,30.06z"/>
				<path style="fill:#4582EC;stroke:#4582EC;stroke-width:0.1;stroke-miterlimit:10;" d="M65.606,21.078
					c0.009-1.071-0.003-2.141,0.006-3.212c0.006-0.725-1.121-0.726-1.127,0c-0.009,1.071,0.003,2.141-0.006,3.212
					C64.474,21.803,65.6,21.804,65.606,21.078z"/>
				<path style="fill:#4582EC;stroke:#4582EC;stroke-width:0.1;stroke-miterlimit:10;" d="M70.194,23.246
					c0.587-0.644,1.174-1.287,1.761-1.931c0.488-0.535-0.307-1.334-0.797-0.797c-0.587,0.644-1.174,1.287-1.761,1.931
					C68.909,22.984,69.704,23.783,70.194,23.246z"/>
				<path style="fill:#4582EC;stroke:#4582EC;stroke-width:0.1;stroke-miterlimit:10;" d="M74.056,26.935
					c-0.836-0.052-1.674-0.047-2.511-0.073c-0.725-0.022-0.725,1.104,0,1.127c0.837,0.026,1.675,0.021,2.511,0.073
					C74.78,28.107,74.777,26.98,74.056,26.935z"/>
				<path style="fill:#4582EC;stroke:#4582EC;stroke-width:0.1;stroke-miterlimit:10;" d="M69.814,32.064
					c-0.589-0.425-1.152,0.552-0.569,0.973c0.718,0.518,1.386,1.099,2.039,1.695c0.535,0.487,1.334-0.307,0.797-0.797
					C71.357,33.274,70.61,32.638,69.814,32.064z"/>
				<path style="fill:#4582EC;stroke:#4582EC;stroke-width:0.1;stroke-miterlimit:10;" d="M29.466,37.374
					c0.669-0.26,0.378-1.35-0.3-1.087c-0.756,0.294-1.512,0.588-2.267,0.882c-0.669,0.26-0.378,1.35,0.3,1.087
					C27.954,37.962,28.71,37.668,29.466,37.374z"/>
				<path style="fill:#4582EC;stroke:#4582EC;stroke-width:0.1;stroke-miterlimit:10;" d="M29.776,38.133
					c-0.775,0.369-1.573,0.671-2.396,0.916c-0.693,0.206-0.398,1.294,0.3,1.087c0.915-0.272,1.803-0.618,2.665-1.029
					C30.999,38.794,30.428,37.822,29.776,38.133z"/>
			</g>
		</g>
	</g>
</g>
<g id="Capa_2">
</g>
</svg>
