<?xml version="1.0" encoding="utf-8"?>
<!-- Generator: Adobe Illustrator 17.0.0, SVG Export Plug-In . SVG Version: 6.00 Build 0)  -->
<!DOCTYPE svg PUBLIC "-//W3C//DTD SVG 1.1//EN" "http://www.w3.org/Graphics/SVG/1.1/DTD/svg11.dtd">
<svg version="1.1" id="Capa_1" xmlns="http://www.w3.org/2000/svg" xmlns:xlink="http://www.w3.org/1999/xlink" x="0px" y="0px"
	 width="800px" height="200px" viewBox="0 0 800 200" enable-background="new 0 0 800 200" xml:space="preserve">
<g>
	<path fill="#0D5CA6" d="M618.418,173.277c2.666,0,5.255-0.461,7.768-1.384s4.589-2.154,6.229-3.692
		c2.359-1.846,3.538-3.794,3.538-5.845v-7.69c-2.153-0.821-4.486-1.461-6.998-1.923c-2.512-0.461-4.845-0.692-6.998-0.692
		c-4.512,0-8.228,1.026-11.151,3.077c-2.923,2.05-4.384,4.717-4.384,7.998c0,2.974,1.128,5.409,3.384,7.306
		C612.061,172.329,614.932,173.277,618.418,173.277 M611.189,190.966c-3.999,0-7.716-0.641-11.151-1.923
		c-3.436-1.282-6.384-3.076-8.845-5.384c-2.461-2.307-4.409-5.025-5.844-8.152c-1.436-3.128-2.153-6.536-2.153-10.228
		c0-4,0.846-7.64,2.538-10.921c1.692-3.282,4.076-6.101,7.152-8.46c3.077-2.358,6.717-4.204,10.921-5.537
		c4.204-1.333,8.87-2,13.997-2c3.384,0,6.665,0.282,9.845,0.846c3.179,0.564,5.947,1.41,8.306,2.538v-3.691
		c0-9.332-5.384-13.997-16.15-13.997c-4.409,0-8.614,0.743-12.613,2.23c-3.999,1.486-8.203,3.716-12.613,6.69l-7.229-15.381
		c5.332-3.487,10.869-6.101,16.612-7.845c5.742-1.743,11.844-2.615,18.304-2.615c12.203,0,21.636,2.872,28.302,8.614
		c6.665,5.742,9.998,14.151,9.998,25.225v20.765c0,2.46,0.385,4.178,1.154,5.153c0.769,0.974,2.127,1.563,4.076,1.768v20.765
		c-2.153,0.512-4.102,0.846-5.845,1s-3.333,0.23-4.769,0.23c-4.614,0-8.101-0.897-10.459-2.691
		c-2.358-1.794-3.845-4.333-4.461-7.614l-0.461-3.692c-3.59,4.614-7.871,8.152-12.844,10.613
		C621.982,189.736,616.726,190.966,611.189,190.966z"/>
	<path fill="#0D5CA6" d="M377.717,188.143l-0.615,0.208c-1.538,0.513-3.284,0.975-5.232,1.385c-1.947,0.41-3.999,0.615-6.152,0.615
		c-2.257,0-4.409-0.309-6.458-0.923c-2.052-0.615-3.847-1.564-5.385-2.845c-1.538-1.281-2.77-2.897-3.691-4.845
		c-0.923-1.947-1.385-4.204-1.385-6.767v-57.373h-11.075v-8.307H348.8V77.627h10.46v31.663h18.457v8.307H359.26v54.449
		c0.204,2.975,1.255,5.154,3.151,6.536c1.896,1.386,4.078,2.078,6.536,2.078c2.975,0,5.59-0.488,7.846-1.464l0.924-0.403
		L377.717,188.143L377.717,188.143z"/>
	<path fill="#0D5CA6" d="M578.08,129.749c-5.947,0.102-11.331,1.077-16.15,2.922c-4.819,1.846-8.307,4.614-10.46,8.306v48.451
		h-24.61v-80.752h22.611v16.304c2.769-5.435,6.332-9.69,10.69-12.767c4.359-3.077,8.998-4.666,13.92-4.769c1.128,0,1.948,0,2.461,0
		s1.025,0.051,1.538,0.155V129.749z"/>
	<path fill="#0D5CA6" d="M265.817,149.744c0,4.512,0.769,8.691,2.308,12.536c1.538,3.845,3.614,7.229,6.229,10.152
		c2.615,2.922,5.691,5.204,9.229,6.845c3.538,1.64,7.307,2.461,11.305,2.461s7.767-0.846,11.305-2.538s6.64-3.999,9.305-6.921
		c2.667-2.922,4.769-6.332,6.306-10.229c1.538-3.897,2.308-8.101,2.308-12.613c0-4.409-0.769-8.587-2.308-12.536
		c-1.538-3.948-3.64-7.383-6.306-10.305c-2.665-2.923-5.767-5.23-9.305-6.922c-3.538-1.692-7.307-2.538-11.305-2.538
		s-7.742,0.846-11.228,2.538c-3.487,1.692-6.563,4.025-9.229,6.998c-2.666,2.974-4.769,6.435-6.306,10.383
		C266.587,141.003,265.817,145.232,265.817,149.744 M294.888,190.966c-5.845,0-11.178-1.102-15.997-3.307s-8.998-5.204-12.536-8.999
		c-3.538-3.794-6.281-8.203-8.229-13.228s-2.922-10.305-2.922-15.843c0-5.64,0.999-10.972,2.999-15.996
		c2-5.025,4.769-9.434,8.306-13.228c3.538-3.795,7.717-6.82,12.537-9.075c4.819-2.256,10.1-3.384,15.842-3.384
		s11.049,1.128,15.92,3.384c4.87,2.256,9.075,5.281,12.613,9.075c3.537,3.794,6.306,8.203,8.306,13.228
		c1.999,5.025,2.999,10.357,2.999,15.996c0,5.538-0.974,10.818-2.922,15.843c-1.948,5.025-4.691,9.434-8.229,13.228
		c-3.538,3.794-7.742,6.793-12.613,8.999C306.091,189.864,300.733,190.966,294.888,190.966z"/>
	<path fill="#0D5CA6" d="M177.183,149.744c0,4.512,0.769,8.691,2.308,12.536c1.538,3.845,3.614,7.229,6.229,10.152
		c2.615,2.922,5.691,5.204,9.229,6.845c3.538,1.64,7.307,2.461,11.305,2.461c3.999,0,7.767-0.846,11.305-2.538
		s6.64-3.999,9.305-6.921c2.666-2.922,4.769-6.332,6.306-10.229c1.538-3.897,2.308-8.101,2.308-12.613
		c0-4.409-0.769-8.587-2.308-12.536c-1.537-3.948-3.64-7.383-6.306-10.305c-2.665-2.923-5.767-5.23-9.305-6.922
		c-3.538-1.692-7.307-2.538-11.305-2.538c-3.999,0-7.742,0.846-11.228,2.538c-3.487,1.692-6.563,4.025-9.229,6.998
		c-2.666,2.974-4.769,6.435-6.306,10.383C177.952,141.003,177.183,145.232,177.183,149.744 M206.254,190.966
		c-5.845,0-11.178-1.102-15.997-3.307c-4.82-2.205-8.998-5.204-12.536-8.999c-3.538-3.794-6.281-8.203-8.229-13.228
		c-1.949-5.025-2.922-10.305-2.922-15.843c0-5.64,0.999-10.972,2.999-15.996c2-5.025,4.769-9.434,8.306-13.228
		c3.538-3.795,7.717-6.82,12.536-9.075c4.82-2.256,10.1-3.384,15.843-3.384c5.742,0,11.049,1.128,15.92,3.384
		c4.87,2.256,9.075,5.281,12.613,9.075c3.537,3.794,6.306,8.203,8.306,13.228c1.999,5.025,2.999,10.357,2.999,15.996
		c0,5.538-0.974,10.818-2.922,15.843c-1.948,5.025-4.691,9.434-8.229,13.228c-3.538,3.794-7.742,6.793-12.613,8.999
		C217.456,189.864,212.098,190.966,206.254,190.966z"/>
	<path fill="#0D5CA6" d="M116.85,181.738c4.409,0,8.434-0.898,12.074-2.692c3.641-1.794,6.768-4.204,9.383-7.229
		c2.615-3.025,4.665-6.46,6.152-10.305s2.23-7.819,2.23-11.921c0-4.204-0.692-8.255-2.076-12.151
		c-1.385-3.896-3.333-7.357-5.846-10.382c-2.512-3.025-5.537-5.434-9.075-7.229c-3.538-1.794-7.409-2.691-11.613-2.691
		c-3.179,0-6.153,0.538-8.921,1.615s-5.332,2.538-7.69,4.384s-4.461,3.973-6.307,6.383c-1.846,2.41-3.384,4.947-4.614,7.614v24.918
		c0.41,2.769,1.512,5.358,3.307,7.768c1.794,2.41,3.948,4.486,6.46,6.229c2.513,1.744,5.23,3.127,8.152,4.153
		C111.389,181.225,114.184,181.738,116.85,181.738 M119.31,190.966c-6.357,0-12.177-1.59-17.457-4.769
		c-5.281-3.178-9.408-7.28-12.382-12.305v15.535h-9.382V77.144h10.459v48.913c3.589-5.435,7.895-9.819,12.92-13.151
		c5.025-3.333,10.869-4.999,17.535-4.999c5.64,0,10.69,1.18,15.15,3.538c4.461,2.358,8.255,5.511,11.383,9.46
		c3.127,3.947,5.537,8.408,7.229,13.381s2.538,10.075,2.538,15.305c0,5.64-0.975,10.972-2.923,15.997
		c-1.949,5.025-4.614,9.408-7.998,13.151s-7.409,6.716-12.075,8.921C129.642,189.864,124.643,190.966,119.31,190.966z"/>
	<path fill="#0D5CA6" d="M422.724,191c-6.876,0-13.649-1.104-20.32-3.309c-6.671-2.206-12.315-5.414-16.933-9.622l8.775-15.086
		c4.926,3.387,9.723,6.003,14.393,7.85c4.67,1.848,9.159,2.771,13.469,2.771c3.181,0,5.644-0.565,7.389-1.694
		s2.617-2.771,2.617-4.926s-1.104-3.874-3.31-5.157s-6.08-2.643-11.622-4.08c-5.439-1.54-10.031-3.027-13.777-4.464
		c-3.746-1.437-6.799-3.027-9.159-4.772c-2.361-1.744-4.054-3.745-5.08-6.003c-1.027-2.258-1.539-4.926-1.539-8.005
		c0-4.105,0.821-7.851,2.463-11.238s3.9-6.26,6.773-8.62c2.874-2.36,6.286-4.208,10.237-5.542c3.951-1.333,8.236-2.001,12.854-2.001
		c6.055,0,11.725,0.821,17.01,2.463c5.285,1.641,10.39,4.618,15.316,8.928l-9.544,14.778c-4.619-3.181-8.724-5.491-12.315-6.927
		c-3.592-1.437-7.081-2.155-10.467-2.155c-2.668,0-4.926,0.539-6.773,1.617c-1.848,1.078-2.771,2.797-2.771,5.157
		c0,2.258,1.001,3.951,3.002,5.081c2.001,1.129,5.721,2.36,11.16,3.694c5.747,1.54,10.596,3.079,14.547,4.618
		c3.952,1.54,7.158,3.258,9.621,5.157s4.259,4.08,5.388,6.543s1.694,5.388,1.694,8.775c0,8.004-2.976,14.367-8.929,19.088
		C440.941,188.639,432.884,191,422.724,191"/>
	<path fill="#0D5CA6" d="M512.525,187.44c-1.726,0.58-3.546,1.14-5.461,1.681c-4.358,1.23-8.742,1.846-13.151,1.846
		c-3.076,0-5.973-0.384-8.69-1.154c-2.717-0.769-5.101-1.999-7.152-3.691s-3.666-3.922-4.845-6.691
		c-1.179-2.769-1.768-6.101-1.768-9.998v-42.145h-10.305v-18.611h10.305V77.632h24.61v31.045h16.458v18.611h-16.458v33.685
		c0,5.169,1.161,9.46,7.075,9.46c1.846,0,3.743-0.308,5.692-0.923c1.353-0.428,2.585-0.88,3.691-1.357L512.525,187.44
		L512.525,187.44z"/>
	<polygon fill="#0D5CA6" points="19.72,156.837 68.285,189.227 68.285,170.642 36.909,148.955 68.285,127.447 68.285,108.863 
		19.72,141.052 	"/>
	<path fill="#0D5CA6" d="M719.912,187.44c-1.726,0.58-3.546,1.14-5.461,1.681c-4.358,1.23-8.742,1.846-13.151,1.846
		c-3.076,0-5.973-0.384-8.69-1.154c-2.717-0.769-5.101-1.999-7.152-3.691c-2.051-1.692-3.666-3.922-4.845-6.691
		c-1.179-2.769-1.769-6.101-1.769-9.998v-42.145h-10.305v-18.611h10.305V77.632h24.61v31.045h16.458v18.611h-16.458v33.685
		c0,5.169,1.161,9.46,7.075,9.46c1.846,0,3.743-0.308,5.692-0.923c1.354-0.428,2.585-0.88,3.692-1.357v19.287H719.912z"/>
	<polygon fill="#0D5CA6" points="780.28,156.837 731.716,189.227 731.716,170.642 763.091,148.955 731.716,127.447 731.716,108.863 
		780.28,141.052 	"/>
</g>
<g>
	<path d="M260.5,11.54h6.165v43.941H260.5V11.54z M264.336,30.91h24.389v5.862h-24.389V30.91z M285.462,11.54h6.166v43.941h-6.166
		V11.54z"/>
	<path d="M310.394,55.934c0,0-1.027-0.543-3.083-1.632c-2.054-1.089-3.621-2.684-4.7-4.79c-1.078-2.105-1.617-4.649-1.617-7.631
		v-3.536c0-3.103,0.519-5.751,1.557-7.948c1.036-2.196,2.543-3.868,4.518-5.017c1.975-1.149,4.352-1.723,7.133-1.723
		c2.618,0,4.855,0.656,6.709,1.964c1.853,1.31,3.268,3.203,4.246,5.682c0.978,2.478,1.466,5.45,1.466,8.915v2.054h-21.154v-4.955
		h15.292c-0.182-2.558-0.842-4.548-1.979-5.969c-1.138-1.42-2.665-2.131-4.578-2.131c-2.337,0-4.146,0.765-5.425,2.296
		c-1.28,1.532-1.919,3.697-1.919,6.498V42c0,2.599,0.684,4.594,2.056,5.984c1.37,1.39,3.313,2.084,5.832,2.084
		c1.25,0,2.489-0.251,3.718-0.755c1.229-0.502,2.327-1.209,3.294-2.114l4.05,4.049c-1.552,1.492-3.294,2.644-5.229,3.46
		c-1.934,0.815-3.879,1.223-5.832,1.223C311.845,55.934,310.394,55.934,310.394,55.934z"/>
	<path d="M343.456,55.934c0,0-1.012-0.532-3.038-1.602c-2.024-1.068-3.572-2.618-4.638-4.655c-1.068-2.035-1.602-4.492-1.602-7.374
		v-5.169c0-2.841,0.534-5.268,1.602-7.283c1.068-2.014,2.614-3.551,4.638-4.608c2.026-1.057,4.468-1.587,7.329-1.587
		c1.632,0,3.169,0.197,4.609,0.59s2.734,0.963,3.883,1.707c1.149,0.744,2.105,1.653,2.871,2.721l-4.443,3.988
		c-0.887-1.006-1.925-1.784-3.113-2.327c-1.19-0.543-2.429-0.815-3.718-0.815c-2.378,0-4.221,0.665-5.53,1.994
		c-1.31,1.329-1.964,3.203-1.964,5.622v5.169c0,2.477,0.65,4.391,1.949,5.742c1.299,1.351,3.148,2.024,5.546,2.024
		c1.31,0,2.558-0.292,3.748-0.877c1.19-0.585,2.217-1.411,3.083-2.478l4.443,4.292c-0.785,1.048-1.754,1.94-2.901,2.674
		c-1.149,0.735-2.444,1.295-3.885,1.677c-1.441,0.382-2.967,0.574-4.578,0.574C344.886,55.934,343.456,55.934,343.456,55.934z"/>
	<path d="M365.911,11.54h6.165v43.941h-6.165V11.54z M384.95,36.472c0-2.217-0.574-3.928-1.723-5.137
		c-1.149-1.209-2.76-1.814-4.835-1.814c-2.015,0-3.572,0.525-4.67,1.572c-1.098,1.048-1.647,2.53-1.647,4.443l-0.635-6.044
		c0.967-1.853,2.23-3.289,3.793-4.306c1.561-1.017,3.289-1.526,5.182-1.526c3.405,0,6.04,1.114,7.903,3.34
		c1.863,2.226,2.796,5.375,2.796,9.445v19.04h-6.166V36.472H384.95z"/>
	<path d="M405.53,54.332c-1.933-1.068-3.411-2.624-4.426-4.668c-1.018-2.045-1.528-4.509-1.528-7.39v-5.107
		c0-2.841,0.51-5.273,1.528-7.298c1.017-2.026,2.493-3.567,4.426-4.625c1.936-1.057,4.262-1.587,6.983-1.587s5.046,0.529,6.98,1.587
		c1.935,1.057,3.411,2.599,4.429,4.625c1.017,2.024,1.525,4.458,1.525,7.298v5.199c0,2.86-0.508,5.304-1.525,7.329
		c-1.02,2.024-2.493,3.572-4.429,4.638c-1.933,1.068-4.259,1.602-6.98,1.602S407.465,55.402,405.53,54.332z M417.514,48.047
		c1.178-1.349,1.766-3.244,1.766-5.682v-5.199c0-2.438-0.588-4.322-1.766-5.652c-1.181-1.329-2.847-1.994-5.002-1.994
		c-2.155,0-3.824,0.665-5.002,1.994c-1.178,1.329-1.769,3.214-1.769,5.652v5.199c0,2.438,0.591,4.331,1.769,5.682
		c1.178,1.351,2.847,2.024,5.002,2.024C414.667,50.072,416.334,49.396,417.514,48.047z"/>
	<path d="M450.83,24.111h6.166v44.122h-6.166V24.111z M459.777,54.529c-1.45-0.937-2.519-2.262-3.203-3.975l0.423-6.559
		c0,1.351,0.242,2.5,0.725,3.445c0.483,0.947,1.184,1.672,2.099,2.176c0.916,0.504,2.03,0.755,3.34,0.755
		c2.035,0,3.611-0.62,4.73-1.859s1.677-2.987,1.677-5.243v-6.799c0-2.296-0.558-4.08-1.677-5.349
		c-1.117-1.269-2.695-1.904-4.73-1.904c-1.31,0-2.423,0.242-3.34,0.725c-0.916,0.484-1.617,1.194-2.099,2.131
		c-0.483,0.937-0.725,2.06-0.725,3.37l-0.635-6.044c0.947-1.833,2.185-3.248,3.718-4.247c1.531-0.997,3.233-1.496,5.107-1.496
		c2.215,0,4.113,0.499,5.695,1.496c1.582,0.999,2.787,2.453,3.611,4.367c0.827,1.914,1.239,4.221,1.239,6.921v6.831
		c0,2.659-0.423,4.936-1.269,6.831s-2.086,3.339-3.718,4.336c-1.632,0.997-3.587,1.496-5.862,1.496
		C462.929,55.934,461.227,55.466,459.777,54.529z"/>
	<path d="M489.546,54.332c-1.934-1.068-3.411-2.624-4.428-4.668c-1.017-2.044-1.526-4.509-1.526-7.39v-5.107
		c0-2.841,0.508-5.273,1.526-7.298s2.493-3.567,4.428-4.625c1.934-1.057,4.261-1.587,6.981-1.587s5.047,0.529,6.981,1.587
		c1.934,1.057,3.411,2.599,4.428,4.625c1.018,2.024,1.526,4.458,1.526,7.298v5.199c0,2.86-0.508,5.304-1.526,7.329
		c-1.018,2.024-2.493,3.572-4.428,4.638c-1.933,1.068-4.261,1.602-6.981,1.602S491.48,55.402,489.546,54.332z M501.527,48.047
		c1.178-1.349,1.767-3.244,1.767-5.682v-5.199c0-2.438-0.59-4.322-1.767-5.652c-1.179-1.329-2.847-1.994-5.002-1.994
		c-2.155,0-3.823,0.665-5.001,1.994c-1.179,1.329-1.769,3.214-1.769,5.652v5.199c0,2.438,0.59,4.331,1.769,5.682
		c1.178,1.349,2.845,2.024,5.001,2.024S500.348,49.396,501.527,48.047z"/>
	<path d="M518.224,24.111h6.166V55.48h-6.166V24.111z M533.425,30.035c-0.827-0.343-1.784-0.514-2.871-0.514
		c-1.955,0-3.471,0.54-4.548,1.617c-1.078,1.078-1.617,2.573-1.617,4.488l-0.635-6.044c0.967-1.874,2.217-3.33,3.748-4.367
		c1.531-1.038,3.223-1.557,5.077-1.557c1.429,0,2.725,0.208,3.883,0.62c1.158,0.414,2.17,1.023,3.038,1.829l-4.02,5.44
		C534.937,30.88,534.251,30.378,533.425,30.035z"/>
</g>
</svg>
