<?xml version="1.0" encoding="utf-8"?>
<!-- Generator: Adobe Illustrator 17.0.0, SVG Export Plug-In . SVG Version: 6.00 Build 0)  -->
<!DOCTYPE svg PUBLIC "-//W3C//DTD SVG 1.1//EN" "http://www.w3.org/Graphics/SVG/1.1/DTD/svg11.dtd">
<svg version="1.1" id="Capa_1" xmlns="http://www.w3.org/2000/svg" xmlns:xlink="http://www.w3.org/1999/xlink" x="0px" y="0px"
	 width="1080px" height="1080px" viewBox="0 0 1080 1080" enable-background="new 0 0 1080 1080" xml:space="preserve">
<g id="Capa_2">
</g>
<g>
	<defs>
		<path id="SVGID_1_" d="M1050,542.394C1050,824.946,820.946,1054,538.394,1054h-0.788C255.054,1054,26,824.946,26,542.394v-0.788
			C26,259.054,255.054,30,537.606,30h0.788C820.946,30,1050,259.054,1050,541.606V542.394z"/>
	</defs>
	<clipPath id="SVGID_2_">
		<use xlink:href="#SVGID_1_"  overflow="visible"/>
	</clipPath>
	<g clip-path="url(#SVGID_2_)">
		<g id="Capa_1_1_">
			<g>
				<g>
					<g>
						<path fill="#4582EC" stroke="#4582EC" stroke-width="0.4435" stroke-miterlimit="10" d="M613.497,235.199
							c-4.023-0.537-8.467,0.466-12.614,1.269c-4.285-10.494-8.982-20.807-14.047-30.857c-3.193-6.338-6.941-16.376-13.138-20.567
							c-8.556-5.793-18.216,3.797-23.583,9.683c-22.874,25.065-43.729,51.513-74.369,67.734c-0.288,0.151-0.519,0.328-0.727,0.519
							c-8.631,2.639-17.241,5.349-25.81,8.197c-5.518,1.832-13.036,3.069-17.591,7.123c-7.824,6.959-2.604,22.111,0.488,30.055
							c2.914,7.487,9.687,22.581,18.403,25.149c2.386,0.701,5.212,0.324,8.037-0.386c5.181,10.751,9.9,21.805,15.879,32.148
							c3.85,6.662,7.749,15.524,16.748,12.543c9.385-3.105,21.206-12.685,18.349-23.765c-1.446-5.598-6.56-9.776-9.74-14.318
							c-3.522-5.03-6.267-10.472-8.853-16.012c1.393-0.439,2.785-0.874,4.174-1.322c17.582-3.424,35.266-5.181,53.128-3.207
							c15.897,1.756,31.43,5.952,47.042,9.279c7.691,1.637,22.355,7.704,27.637-1.615c5.398-9.514-1.725-27.309-4.178-36.761
							c-1.668-6.422-3.526-12.823-5.513-19.188c4.316-2.901,9.66-5.646,11.767-10.499c2.222-5.118,0.009-10.765-2.151-15.493
							C620.998,240.845,618.368,235.846,613.497,235.199z M445.456,319.233c-2.586-3.597-4.653-7.443-6.383-11.506
							c-1.73-4.067-3.06-8.223-3.85-12.583c-1.69-9.341,3.544-13.444,11.599-16.158c9.731-3.278,19.52-6.383,29.34-9.39
							c4.954,15.706,10.21,31.31,15.768,46.812c-8.711,2.799-17.48,5.393-26.351,7.647
							C457.33,326.156,451.089,327.061,445.456,319.233z M497.786,345.357c0.892,1.171,2.302,2.679,3.021,3.806
							c4.342,6.813,4.435,11.009-1.304,17.347c-1.53,1.69-4.511,3.584-6.502,4.537c-1.956,0.936-3.398,1.433-4.679,1.468
							c0.927-1.588,1.69-3.264,2.289-5.016c1.042-3.052-3.783-4.36-4.821-1.331c-0.501,1.473-1.18,2.848-1.978,4.16
							c-0.217-0.204-0.421-0.381-0.652-0.617c-0.466-0.479-0.905-1.007-1.335-1.544c0.049-0.102,0.106-0.2,0.142-0.315
							c0.364-1.069,1.047-2.018,1.552-3.025c0.617-1.233,1.14-2.519,1.592-3.823c1.051-3.047-3.775-4.356-4.821-1.331
							c-0.444,1.286-1.078,2.475-1.699,3.673c-0.661-1.167-1.277-2.377-1.881-3.597c0.009-0.013,0.027-0.022,0.031-0.04
							c1.144-2.502,2.289-5.008,3.437-7.509c0.559-1.224,0.35-2.692-0.896-3.42c-1.073-0.63-2.856-0.337-3.42,0.896
							c-0.639,1.402-1.282,2.799-1.921,4.2c-0.452-0.976-0.9-1.925-1.344-2.821c-0.231-0.466-0.444-0.94-0.674-1.41
							c0.186-0.169,0.364-0.368,0.515-0.621c1.113-1.916,2.227-3.837,3.344-5.757c1.619-2.785-2.701-5.305-4.316-2.524
							c-0.696,1.193-1.388,2.391-2.08,3.584c-0.625-1.326-1.277-2.643-1.898-3.97c0.182-0.16,0.364-0.319,0.514-0.514
							c0.998-1.313,1.96-2.648,2.892-4.005c0.763-1.113,0.208-2.772-0.896-3.42c-1.237-0.723-2.657-0.222-3.42,0.896
							c-0.47,0.688-0.976,1.353-1.464,2.031c-0.577-1.22-1.149-2.444-1.73-3.659c1.419-0.457,2.763-0.896,3.97-1.202
							c6.307-1.606,12.566-3.389,18.789-5.283C489.452,332.286,493.013,339.081,497.786,345.357z M590.132,320.519
							c-14.366-3.176-28.702-6.706-43.37-8.166c-16.784-1.672-33.417-0.053-49.925,2.967c-5.7-15.888-11.084-31.882-16.149-47.987
							c27.535-15.032,48.945-38.508,69.126-62.078c2.333-2.728,6.037-7.953,10.17-11.443c11.909,17.835,19.689,40.048,27.486,59.728
							c8.951,22.581,16.393,47.144,20.678,71.189C602.014,324.276,594.443,321.472,590.132,320.519z M617.769,318.443
							c-0.226,3.464-2.031,5.203-4.626,5.926c-4.36-24.94-12.104-50.333-21.49-73.744c-7.904-19.72-15.537-41.715-27.478-59.524
							c2.182-0.945,4.396-1.109,6.525,0.111c2.83,1.623,5.252,8.072,6.742,10.791c6.919,12.628,12.721,25.925,18.048,39.289
							c6.365,15.968,11.985,32.272,16.393,48.892C614.105,298.554,618.345,309.732,617.769,318.443z M619.326,260.077
							c-1.73,2.471-4.87,4.2-7.651,5.912c-2.71-8.33-5.691-16.589-8.911-24.75c1.987-0.328,3.974-0.652,5.979-0.86
							c4.879-0.514,6.742,0.887,9.031,5.394C619.951,250.062,622.47,255.584,619.326,260.077z"/>
						<path fill="#4582EC" stroke="#4582EC" stroke-width="0.4435" stroke-miterlimit="10" d="M614.828,220.234
							c0.04-4.75-0.013-9.496,0.027-14.247c0.027-3.216-4.972-3.22-4.999,0c-0.04,4.75,0.013,9.496-0.027,14.247
							C609.803,223.454,614.801,223.454,614.828,220.234z"/>
						<path fill="#4582EC" stroke="#4582EC" stroke-width="0.4435" stroke-miterlimit="10" d="M635.173,229.854
							c2.604-2.856,5.207-5.708,7.811-8.565c2.164-2.373-1.362-5.917-3.535-3.535c-2.604,2.856-5.207,5.708-7.811,8.565
							C629.478,228.692,633,232.236,635.173,229.854z"/>
						<path fill="#4582EC" stroke="#4582EC" stroke-width="0.4435" stroke-miterlimit="10" d="M652.303,246.212
							c-3.708-0.231-7.425-0.208-11.137-0.324c-3.216-0.098-3.216,4.897,0,4.999c3.712,0.115,7.429,0.093,11.137,0.324
							C655.514,251.415,655.505,246.416,652.303,246.212z"/>
						<path fill="#4582EC" stroke="#4582EC" stroke-width="0.4435" stroke-miterlimit="10" d="M633.492,268.966
							c-2.612-1.885-5.11,2.448-2.524,4.316c3.185,2.298,6.148,4.875,9.044,7.518c2.373,2.16,5.917-1.362,3.535-3.535
							C640.332,274.333,637.023,271.512,633.492,268.966z"/>
						<path fill="#4582EC" stroke="#4582EC" stroke-width="0.4435" stroke-miterlimit="10" d="M454.527,292.518
							c2.967-1.153,1.677-5.988-1.331-4.821c-3.353,1.304-6.706,2.608-10.055,3.912c-2.967,1.153-1.677,5.988,1.331,4.821
							C447.825,295.126,451.178,293.822,454.527,292.518z"/>
						<path fill="#4582EC" stroke="#4582EC" stroke-width="0.4435" stroke-miterlimit="10" d="M455.902,295.88
							c-3.437,1.637-6.977,2.976-10.627,4.063c-3.074,0.914-1.765,5.739,1.331,4.821c4.058-1.206,7.997-2.741,11.82-4.564
							C461.326,298.816,458.794,294.505,455.902,295.88z"/>
					</g>
				</g>
			</g>
		</g>
		<g>
			<g>
				<g>
					<path fill="#4582EC" d="M419.256,502.369c0,3.811-0.764,7.312-2.287,10.502c-1.525,3.194-3.573,5.955-6.145,8.288
						c-2.571,2.336-5.573,4.144-9.002,5.429c-3.429,1.287-7.098,1.93-11.003,1.93h-47.87V427.064h48.87
						c3.524,0,6.716,0.764,9.574,2.287c2.858,1.525,5.287,3.501,7.288,5.93c2,2.429,3.548,5.194,4.643,8.288
						c1.095,3.097,1.644,6.215,1.644,9.359c0,5.145-1.287,9.838-3.858,14.075c-2.572,4.24-6.145,7.409-10.717,9.502
						c5.809,1.715,10.407,4.908,13.789,9.574C417.563,490.748,419.256,496.178,419.256,502.369z M352.952,435.781v37.438h34.867
						c2.476,0,4.786-0.522,6.93-1.572c2.143-1.047,3.976-2.429,5.501-4.144c1.523-1.715,2.716-3.691,3.573-5.93
						c0.858-2.238,1.287-4.595,1.287-7.073c0-2.572-0.407-5.001-1.215-7.288c-0.81-2.286-1.953-4.262-3.429-5.93
						c-1.478-1.666-3.215-3-5.215-4.001c-2.001-1-4.194-1.5-6.574-1.5H352.952z M409.253,500.655c0-2.476-0.429-4.881-1.286-7.217
						c-0.858-2.332-2.073-4.38-3.644-6.144c-1.572-1.762-3.429-3.19-5.573-4.287c-2.143-1.095-4.454-1.643-6.931-1.643h-38.867
						v38.438h37.867c2.572,0,4.977-0.522,7.217-1.572c2.237-1.047,4.19-2.452,5.858-4.215c1.666-1.761,2.976-3.809,3.93-6.145
						C408.775,505.538,409.253,503.133,409.253,500.655z"/>
					<path fill="#4582EC" d="M459.407,529.948c-8.098,0-14.124-2.691-18.076-8.073c-3.954-5.382-5.93-13.408-5.93-24.078v-43.726
						h9.716v42.011c0,16.861,5.763,25.292,17.29,25.292c2.858,0,5.667-0.476,8.432-1.429c2.761-0.951,5.309-2.332,7.644-4.144
						c2.334-1.808,4.429-3.951,6.287-6.43c1.858-2.476,3.359-5.287,4.501-8.431v-46.869h9.717v61.874c0,2.668,1.143,4,3.429,4v8.574
						c-1.143,0.19-2.072,0.286-2.786,0.286c-0.714,0-1.215,0-1.501,0c-2.286-0.096-4.144-0.904-5.573-2.429
						c-1.429-1.522-2.143-3.572-2.143-6.145v-8.573c-3.239,5.812-7.644,10.312-13.217,13.504
						C471.624,528.354,465.694,529.948,459.407,529.948z"/>
					<path fill="#4582EC" d="M545.714,529.948c-5.812,0-11.48-0.953-17.004-2.858c-5.527-1.905-10.289-4.666-14.29-8.287
						l4.429-6.574c4.191,3.429,8.453,6.002,12.789,7.716c4.334,1.715,8.978,2.572,13.933,2.572c6.002,0,10.788-1.215,14.361-3.644
						s5.359-5.881,5.359-10.359c0-2.095-0.478-3.834-1.429-5.216c-0.953-1.379-2.357-2.594-4.215-3.643
						c-1.858-1.048-4.194-1.976-7.002-2.786c-2.811-0.809-6.073-1.644-9.789-2.501c-4.286-1.048-8.002-2.095-11.145-3.144
						c-3.144-1.048-5.74-2.238-7.788-3.572c-2.049-1.333-3.572-2.976-4.573-4.93c-1-1.951-1.501-4.405-1.501-7.359
						c0-3.716,0.737-7.003,2.215-9.86c1.476-2.858,3.476-5.216,6.002-7.073c2.524-1.858,5.477-3.263,8.86-4.216
						c3.38-0.95,6.977-1.428,10.788-1.428c5.716,0,10.907,0.928,15.576,2.786c4.667,1.857,8.431,4.311,11.289,7.359l-4.715,5.716
						c-2.765-2.858-6.122-5.001-10.075-6.43c-3.954-1.429-8.073-2.143-12.36-2.143c-2.572,0-4.954,0.264-7.145,0.786
						c-2.192,0.524-4.121,1.357-5.787,2.501c-1.668,1.142-2.979,2.596-3.93,4.358c-0.953,1.765-1.429,3.836-1.429,6.217
						c0,2,0.332,3.621,1,4.858c0.666,1.239,1.761,2.311,3.287,3.215c1.522,0.907,3.452,1.715,5.787,2.429
						c2.333,0.714,5.167,1.453,8.502,2.215c4.763,1.142,8.954,2.286,12.575,3.429c3.619,1.143,6.644,2.478,9.073,4.001
						c2.429,1.525,4.262,3.382,5.501,5.573c1.238,2.192,1.858,4.858,1.858,8.002c0,6.859-2.621,12.289-7.859,16.29
						C561.622,527.948,554.573,529.948,545.714,529.948z"/>
					<path fill="#4582EC" d="M585.439,491.081c0-5.238,0.905-10.192,2.715-14.861c1.809-4.666,4.359-8.739,7.646-12.217
						c3.286-3.477,7.216-6.217,11.788-8.217c4.573-2,9.621-3,15.147-3c7.049,0,13.193,1.596,18.434,4.786
						c5.238,3.192,9.192,7.502,11.861,12.932l-9.432,3.001c-2.097-3.809-5.025-6.788-8.788-8.931
						c-3.765-2.143-7.93-3.215-12.503-3.215c-3.811,0-7.36,0.763-10.646,2.287c-3.287,1.525-6.145,3.596-8.574,6.215
						c-2.429,2.621-4.336,5.741-5.716,9.36c-1.382,3.621-2.072,7.573-2.072,11.86c0,4.194,0.714,8.145,2.143,11.86
						c1.429,3.716,3.38,6.931,5.858,9.646c2.477,2.715,5.359,4.858,8.646,6.43c3.287,1.571,6.788,2.357,10.502,2.357
						c2.38,0,4.738-0.332,7.073-1c2.334-0.666,4.501-1.594,6.502-2.786c2-1.19,3.715-2.547,5.144-4.072
						c1.429-1.523,2.429-3.145,3.001-4.859l9.573,2.858c-1.049,2.668-2.571,5.122-4.573,7.359c-2,2.24-4.358,4.194-7.073,5.859
						c-2.715,1.668-5.715,2.954-9.002,3.858c-3.287,0.904-6.693,1.357-10.217,1.357c-5.43,0-10.432-1.025-15.004-3.072
						c-4.573-2.048-8.526-4.859-11.86-8.431c-3.336-3.572-5.93-7.692-7.788-12.36C586.367,501.418,585.439,496.417,585.439,491.081z
						"/>
					<path fill="#4582EC" d="M700.041,529.948c-5.43,0-10.384-1.025-14.861-3.072c-4.479-2.048-8.359-4.834-11.646-8.36
						c-3.287-3.523-5.836-7.62-7.644-12.289c-1.811-4.666-2.716-9.574-2.716-14.718c0-5.238,0.93-10.193,2.787-14.861
						c1.857-4.666,4.429-8.764,7.716-12.289c3.286-3.524,7.167-6.335,11.646-8.431c4.476-2.095,9.382-3.144,14.718-3.144
						c5.334,0,10.264,1.049,14.789,3.144c4.524,2.096,8.431,4.907,11.718,8.431c3.287,3.525,5.858,7.623,7.716,12.289
						c1.858,4.668,2.786,9.623,2.786,14.861c0,5.144-0.907,10.052-2.715,14.718c-1.811,4.669-4.359,8.766-7.644,12.289
						c-3.287,3.526-7.194,6.312-11.718,8.36C710.448,528.923,705.471,529.948,700.041,529.948z M673.034,491.652
						c0,4.194,0.715,8.074,2.142,11.646c1.429,3.572,3.359,6.716,5.788,9.432c2.429,2.715,5.287,4.835,8.574,6.359
						c3.286,1.525,6.788,2.286,10.503,2.286c3.716,0,7.217-0.786,10.502-2.357c3.287-1.572,6.167-3.716,8.646-6.43
						c2.476-2.715,4.429-5.881,5.858-9.502c1.429-3.619,2.143-7.524,2.143-11.718c0-4.095-0.714-7.977-2.143-11.646
						c-1.429-3.666-3.382-6.858-5.858-9.574c-2.479-2.715-5.359-4.858-8.646-6.429c-3.286-1.572-6.787-2.358-10.502-2.358
						c-3.715,0-7.194,0.786-10.431,2.358c-3.24,1.571-6.098,3.74-8.574,6.501c-2.478,2.765-4.43,5.98-5.859,9.646
						C673.749,483.532,673.034,487.462,673.034,491.652z"/>
				</g>
				<g>
					<path fill="none" stroke="#4582EC" stroke-width="9.8894" stroke-miterlimit="10" d="M419.256,502.369
						c0,3.811-0.764,7.312-2.287,10.502c-1.525,3.194-3.573,5.955-6.145,8.288c-2.571,2.336-5.573,4.144-9.002,5.429
						c-3.429,1.287-7.098,1.93-11.003,1.93H342.95V427.064h48.869c3.524,0,6.716,0.764,9.574,2.287
						c2.858,1.525,5.287,3.501,7.288,5.93c2,2.429,3.548,5.194,4.643,8.288c1.095,3.097,1.644,6.215,1.644,9.359
						c0,5.145-1.287,9.838-3.858,14.075c-2.572,4.24-6.145,7.409-10.717,9.502c5.809,1.715,10.407,4.908,13.789,9.574
						C417.563,490.748,419.256,496.178,419.256,502.369z M352.953,435.781v37.438h34.867c2.476,0,4.786-0.522,6.93-1.572
						c2.143-1.047,3.976-2.429,5.501-4.144c1.523-1.715,2.716-3.691,3.573-5.93c0.858-2.238,1.287-4.595,1.287-7.073
						c0-2.572-0.407-5.001-1.215-7.288c-0.81-2.286-1.953-4.262-3.429-5.93c-1.478-1.666-3.215-3-5.215-4.001
						c-2.001-1-4.194-1.5-6.574-1.5H352.953z M409.253,500.655c0-2.476-0.429-4.881-1.286-7.217
						c-0.858-2.332-2.073-4.38-3.644-6.144c-1.572-1.762-3.429-3.19-5.573-4.287c-2.143-1.095-4.454-1.643-6.931-1.643h-38.867
						v38.438h37.867c2.572,0,4.977-0.522,7.217-1.572c2.237-1.047,4.19-2.452,5.858-4.215c1.666-1.761,2.976-3.809,3.93-6.145
						C408.775,505.538,409.253,503.133,409.253,500.655z"/>
					<path fill="none" stroke="#4582EC" stroke-width="9.8894" stroke-miterlimit="10" d="M459.407,529.948
						c-8.098,0-14.124-2.691-18.076-8.073c-3.954-5.382-5.93-13.408-5.93-24.078v-43.726h9.716v42.011
						c0,16.861,5.763,25.292,17.29,25.292c2.858,0,5.667-0.476,8.432-1.429c2.761-0.951,5.309-2.332,7.644-4.144
						c2.334-1.808,4.429-3.951,6.287-6.43c1.858-2.476,3.359-5.287,4.501-8.431v-46.869h9.717v61.874c0,2.668,1.143,4,3.429,4v8.574
						c-1.143,0.19-2.072,0.286-2.786,0.286c-0.714,0-1.215,0-1.501,0c-2.286-0.096-4.144-0.904-5.573-2.429
						c-1.429-1.522-2.143-3.572-2.143-6.145v-8.573c-3.239,5.812-7.644,10.312-13.217,13.504
						C471.624,528.354,465.694,529.948,459.407,529.948z"/>
					<path fill="none" stroke="#4582EC" stroke-width="9.8894" stroke-miterlimit="10" d="M545.714,529.948
						c-5.812,0-11.48-0.953-17.004-2.858c-5.527-1.905-10.289-4.666-14.29-8.287l4.429-6.574c4.191,3.429,8.453,6.002,12.789,7.716
						c4.334,1.715,8.978,2.572,13.933,2.572c6.002,0,10.788-1.215,14.361-3.644s5.359-5.881,5.359-10.359
						c0-2.095-0.478-3.834-1.429-5.216c-0.953-1.379-2.357-2.594-4.215-3.643c-1.858-1.048-4.194-1.976-7.002-2.786
						c-2.811-0.809-6.073-1.644-9.789-2.501c-4.286-1.048-8.002-2.095-11.145-3.144c-3.144-1.048-5.74-2.238-7.788-3.572
						c-2.049-1.333-3.572-2.976-4.573-4.93c-1-1.951-1.501-4.405-1.501-7.359c0-3.716,0.737-7.003,2.215-9.86
						c1.476-2.858,3.476-5.216,6.002-7.073c2.524-1.858,5.477-3.263,8.86-4.216c3.38-0.95,6.977-1.428,10.788-1.428
						c5.716,0,10.907,0.928,15.576,2.786c4.667,1.857,8.431,4.311,11.289,7.359l-4.715,5.716c-2.765-2.858-6.122-5.001-10.075-6.43
						c-3.954-1.429-8.073-2.143-12.36-2.143c-2.572,0-4.954,0.264-7.145,0.786c-2.192,0.524-4.121,1.357-5.787,2.501
						c-1.668,1.142-2.979,2.596-3.93,4.358c-0.953,1.765-1.429,3.836-1.429,6.217c0,2,0.332,3.621,1,4.858
						c0.666,1.239,1.761,2.311,3.287,3.215c1.522,0.907,3.452,1.715,5.787,2.429c2.333,0.714,5.167,1.453,8.502,2.215
						c4.763,1.142,8.954,2.286,12.575,3.429c3.619,1.143,6.644,2.478,9.073,4.001c2.429,1.525,4.262,3.382,5.501,5.573
						c1.238,2.192,1.858,4.858,1.858,8.002c0,6.859-2.621,12.289-7.859,16.29C561.622,527.948,554.573,529.948,545.714,529.948z"/>
					<path fill="none" stroke="#4582EC" stroke-width="9.8894" stroke-miterlimit="10" d="M585.439,491.081
						c0-5.238,0.905-10.192,2.715-14.861c1.809-4.666,4.359-8.739,7.646-12.217c3.286-3.477,7.216-6.217,11.788-8.217
						c4.573-2,9.621-3,15.147-3c7.049,0,13.193,1.596,18.434,4.786c5.238,3.192,9.192,7.502,11.861,12.932l-9.432,3.001
						c-2.097-3.809-5.025-6.788-8.788-8.931c-3.765-2.143-7.93-3.215-12.503-3.215c-3.811,0-7.36,0.763-10.646,2.287
						c-3.287,1.525-6.145,3.596-8.574,6.215c-2.429,2.621-4.336,5.741-5.716,9.36c-1.382,3.621-2.072,7.573-2.072,11.86
						c0,4.194,0.714,8.145,2.143,11.86c1.429,3.716,3.38,6.931,5.858,9.646c2.477,2.715,5.359,4.858,8.646,6.43
						c3.287,1.571,6.788,2.357,10.502,2.357c2.38,0,4.738-0.332,7.073-1c2.334-0.666,4.501-1.594,6.502-2.786
						c2-1.19,3.715-2.547,5.144-4.072c1.429-1.523,2.429-3.145,3.001-4.859l9.573,2.858c-1.049,2.668-2.571,5.122-4.573,7.359
						c-2,2.24-4.358,4.194-7.073,5.859c-2.715,1.668-5.715,2.954-9.002,3.858c-3.287,0.904-6.693,1.357-10.217,1.357
						c-5.43,0-10.432-1.025-15.004-3.072c-4.573-2.048-8.526-4.859-11.86-8.431c-3.336-3.572-5.93-7.692-7.788-12.36
						C586.367,501.418,585.439,496.417,585.439,491.081z"/>
					<path fill="none" stroke="#4582EC" stroke-width="9.8894" stroke-miterlimit="10" d="M700.041,529.948
						c-5.43,0-10.384-1.025-14.861-3.072c-4.479-2.048-8.359-4.834-11.646-8.36c-3.287-3.523-5.836-7.62-7.644-12.289
						c-1.811-4.666-2.716-9.574-2.716-14.718c0-5.238,0.93-10.193,2.787-14.861c1.857-4.666,4.429-8.764,7.716-12.289
						c3.286-3.524,7.167-6.335,11.646-8.431c4.476-2.095,9.382-3.144,14.718-3.144c5.334,0,10.264,1.049,14.789,3.144
						c4.524,2.096,8.431,4.907,11.718,8.431c3.287,3.525,5.858,7.623,7.716,12.289c1.858,4.668,2.786,9.623,2.786,14.861
						c0,5.144-0.907,10.052-2.715,14.718c-1.811,4.669-4.359,8.766-7.644,12.289c-3.287,3.526-7.194,6.312-11.718,8.36
						C710.448,528.923,705.471,529.948,700.041,529.948z M673.034,491.652c0,4.194,0.715,8.074,2.142,11.646
						c1.429,3.572,3.359,6.716,5.788,9.432c2.429,2.715,5.287,4.835,8.574,6.359c3.286,1.525,6.788,2.286,10.503,2.286
						c3.716,0,7.217-0.786,10.502-2.357c3.287-1.572,6.167-3.716,8.646-6.43c2.476-2.715,4.429-5.881,5.858-9.502
						c1.429-3.619,2.143-7.524,2.143-11.718c0-4.095-0.714-7.977-2.143-11.646c-1.429-3.666-3.382-6.858-5.858-9.574
						c-2.479-2.715-5.359-4.858-8.646-6.429c-3.286-1.572-6.787-2.358-10.502-2.358c-3.715,0-7.194,0.786-10.431,2.358
						c-3.24,1.571-6.098,3.74-8.574,6.501c-2.478,2.765-4.43,5.98-5.859,9.646C673.749,483.532,673.034,487.462,673.034,491.652z"/>
				</g>
			</g>
			<g>
				<g enable-background="new    ">
					<path fill="#4582EC" d="M352.524,844.451c0-6.095,1.072-12.168,3.215-18.219c2.143-6.049,5.263-11.455,9.36-16.218
						c4.095-4.763,9.145-8.646,15.147-11.646c6.002-3.001,12.812-4.502,20.433-4.502c9.05,0,16.791,2.05,23.221,6.145
						c6.429,4.097,11.168,9.431,14.217,16.005l-7.858,4.858c-1.621-3.334-3.597-6.145-5.93-8.431
						c-2.336-2.287-4.836-4.145-7.502-5.574c-2.668-1.429-5.43-2.451-8.288-3.072c-2.858-0.618-5.668-0.928-8.431-0.928
						c-6.097,0-11.48,1.239-16.147,3.715c-4.669,2.479-8.598,5.716-11.789,9.717c-3.193,4-5.598,8.502-7.216,13.503
						c-1.621,5.002-2.43,10.075-2.43,15.218c0,5.623,0.976,11.003,2.93,16.148c1.951,5.144,4.619,9.695,8.002,13.646
						c3.38,3.954,7.382,7.097,12.003,9.431c4.62,2.336,9.645,3.501,15.076,3.501c2.858,0,5.787-0.357,8.788-1.072
						c3.001-0.714,5.905-1.858,8.717-3.429c2.808-1.572,5.405-3.524,7.788-5.859c2.379-2.332,4.38-5.167,6-8.501l8.288,4.286
						c-1.621,3.811-3.908,7.17-6.859,10.075c-2.954,2.907-6.239,5.359-9.86,7.359c-3.621,2-7.456,3.526-11.503,4.573
						c-4.05,1.047-8.027,1.572-11.933,1.572c-6.954,0-13.338-1.523-19.147-4.573c-5.812-3.048-10.813-7.024-15.004-11.933
						c-4.193-4.905-7.455-10.477-9.789-16.718C353.69,857.289,352.524,850.93,352.524,844.451z"/>
					<path fill="#4582EC" d="M487.272,794.438h8.431l42.154,101.454h-10.574l-13.147-31.722h-45.582l-13.004,31.722h-10.717
						L487.272,794.438z M511.851,856.311l-20.435-50.156l-20.718,50.156H511.851z"/>
					<path fill="#4582EC" d="M628.738,869.743c0,3.811-0.764,7.312-2.287,10.502c-1.525,3.194-3.572,5.955-6.145,8.288
						c-2.572,2.336-5.573,4.144-9.003,5.429c-3.429,1.287-7.097,1.93-11.002,1.93h-47.869V794.438h48.869
						c3.524,0,6.716,0.763,9.574,2.286c2.858,1.526,5.287,3.501,7.288,5.93c2,2.429,3.546,5.194,4.643,8.288
						c1.095,3.097,1.644,6.215,1.644,9.359c0,5.145-1.287,9.838-3.859,14.076c-2.571,4.239-6.144,7.408-10.717,9.502
						c5.81,1.715,10.407,4.907,13.79,9.573C627.044,858.122,628.738,863.552,628.738,869.743z M562.434,803.154v37.438H597.3
						c2.476,0,4.788-0.522,6.93-1.572c2.143-1.047,3.978-2.429,5.502-4.144c1.523-1.715,2.716-3.691,3.572-5.93
						c0.857-2.237,1.287-4.595,1.287-7.073c0-2.572-0.407-5.001-1.215-7.287c-0.811-2.287-1.953-4.263-3.43-5.931
						c-1.477-1.666-3.214-3-5.214-4c-2.001-1-4.194-1.501-6.574-1.501H562.434z M618.735,868.028c0-2.476-0.429-4.881-1.286-7.216
						c-0.858-2.333-2.073-4.381-3.644-6.145c-1.572-1.761-3.429-3.19-5.573-4.287c-2.143-1.093-4.454-1.643-6.931-1.643h-38.867
						v38.438h37.867c2.571,0,4.977-0.522,7.217-1.572c2.237-1.047,4.19-2.452,5.858-4.215c1.665-1.761,2.976-3.809,3.93-6.145
						C618.258,872.911,618.735,870.507,618.735,868.028z"/>
					<path fill="#4582EC" d="M676.891,794.438h8.431l42.154,101.454h-10.574l-13.147-31.722h-45.583l-13.003,31.722h-10.717
						L676.891,794.438z M701.469,856.311l-20.435-50.156l-20.719,50.156H701.469z"/>
				</g>
				<g>
					<path fill="none" stroke="#4582EC" stroke-width="9.8894" stroke-miterlimit="10" d="M352.524,844.451
						c0-6.096,1.072-12.168,3.215-18.22c2.143-6.048,5.263-11.454,9.36-16.218c4.095-4.763,9.145-8.645,15.147-11.646
						c6.002-3,12.812-4.501,20.433-4.501c9.05,0,16.791,2.05,23.221,6.145c6.429,4.097,11.168,9.431,14.217,16.003l-7.858,4.859
						c-1.621-3.334-3.597-6.145-5.931-8.432c-2.335-2.286-4.835-4.144-7.501-5.573c-2.669-1.429-5.43-2.452-8.288-3.072
						c-2.858-0.619-5.669-0.928-8.431-0.928c-6.097,0-11.481,1.239-16.147,3.715c-4.669,2.478-8.598,5.716-11.789,9.716
						c-3.193,4.001-5.598,8.502-7.216,13.504c-1.621,5.002-2.43,10.075-2.43,15.218c0,5.623,0.976,11.003,2.93,16.147
						c1.951,5.145,4.619,9.695,8.002,13.647c3.38,3.954,7.382,7.097,12.003,9.431c4.62,2.336,9.645,3.501,15.076,3.501
						c2.858,0,5.787-0.357,8.788-1.072c3-0.714,5.905-1.858,8.716-3.429c2.809-1.572,5.405-3.524,7.788-5.859
						c2.38-2.332,4.38-5.167,6.002-8.501l8.288,4.286c-1.621,3.811-3.908,7.17-6.859,10.075c-2.954,2.907-6.24,5.359-9.86,7.359
						c-3.621,2-7.456,3.526-11.503,4.573c-4.05,1.047-8.027,1.572-11.933,1.572c-6.955,0-13.338-1.523-19.147-4.573
						c-5.812-3.048-10.813-7.024-15.004-11.933c-4.193-4.905-7.455-10.477-9.789-16.718
						C353.69,857.289,352.524,850.93,352.524,844.451z"/>
					<path fill="none" stroke="#4582EC" stroke-width="9.8894" stroke-miterlimit="10" d="M487.272,794.437h8.431l42.154,101.455
						h-10.574l-13.147-31.722h-45.583l-13.003,31.722h-10.717L487.272,794.437z M511.851,856.311l-20.435-50.156l-20.719,50.156
						H511.851z"/>
					<path fill="none" stroke="#4582EC" stroke-width="9.8894" stroke-miterlimit="10" d="M628.737,869.743
						c0,3.811-0.763,7.312-2.286,10.502c-1.526,3.194-3.572,5.955-6.145,8.288c-2.572,2.336-5.573,4.144-9.003,5.429
						c-3.429,1.287-7.097,1.93-11.002,1.93h-47.87V794.437h48.87c3.523,0,6.716,0.764,9.574,2.287
						c2.858,1.525,5.287,3.501,7.287,5.93c2,2.429,3.548,5.194,4.644,8.288c1.093,3.097,1.643,6.215,1.643,9.359
						c0,5.145-1.286,9.838-3.858,14.075c-2.572,4.24-6.144,7.409-10.717,9.502c5.81,1.715,10.407,4.908,13.789,9.574
						C627.044,858.122,628.737,863.551,628.737,869.743z M562.434,803.154v37.438H597.3c2.476,0,4.788-0.522,6.93-1.572
						c2.143-1.047,3.978-2.429,5.502-4.144c1.522-1.715,2.715-3.691,3.572-5.93c0.857-2.238,1.286-4.595,1.286-7.073
						c0-2.572-0.406-5.001-1.214-7.288c-0.811-2.286-1.955-4.262-3.43-5.93c-1.478-1.666-3.215-3-5.215-4.001
						c-2-1-4.193-1.5-6.573-1.5H562.434z M618.734,868.028c0-2.476-0.428-4.881-1.286-7.217c-0.858-2.332-2.072-4.38-3.644-6.144
						c-1.571-1.762-3.429-3.19-5.573-4.287c-2.143-1.095-4.454-1.643-6.93-1.643h-38.867v38.438h37.867
						c2.571,0,4.977-0.522,7.216-1.572c2.237-1.047,4.191-2.452,5.859-4.215c1.665-1.761,2.975-3.809,3.929-6.145
						C618.256,872.911,618.734,870.506,618.734,868.028z"/>
					<path fill="none" stroke="#4582EC" stroke-width="9.8894" stroke-miterlimit="10" d="M676.891,794.437h8.431l42.153,101.455
						h-10.574l-13.145-31.722h-45.583l-13.003,31.722h-10.717L676.891,794.437z M701.468,856.311l-20.434-50.156l-20.719,50.156
						H701.468z"/>
				</g>
			</g>
			<g>
				<g>
					<path fill="#4582EC" d="M385.461,622.182h-36.152v92.596h-10.003v-92.596h-36.152v-8.86h82.307V622.182z"/>
					<path fill="#4582EC" d="M420.042,648.904c-6.573,0.191-12.289,2-17.147,5.429c-4.859,3.43-8.288,8.145-10.289,14.147v46.298
						h-9.717V640.33h9.145v17.861c2.762-5.716,6.477-10.192,11.146-13.432c4.666-3.237,9.668-4.858,15.004-4.858
						c0.762,0,1.38,0.049,1.858,0.143V648.904z"/>
					<path fill="#4582EC" d="M450.765,716.207c-3.525,0-6.787-0.596-9.788-1.786c-3.001-1.19-5.622-2.833-7.859-4.93
						c-2.239-2.095-3.979-4.548-5.215-7.359c-1.24-2.809-1.858-5.834-1.858-9.073c0-3.238,0.762-6.238,2.286-9.003
						c1.523-2.761,3.666-5.144,6.43-7.145c2.762-2,6.048-3.548,9.86-4.644c3.809-1.094,8.002-1.643,12.575-1.643
						c3.809,0,7.667,0.336,11.574,1c3.905,0.668,7.382,1.621,10.431,2.858v-6.716c0-6.573-1.857-11.788-5.573-15.646
						c-3.715-3.859-8.86-5.788-15.433-5.788c-3.811,0-7.716,0.763-11.717,2.286c-4.001,1.526-8.052,3.716-12.146,6.574l-3.429-6.43
						c9.621-6.477,18.956-9.716,28.007-9.716c9.335,0,16.67,2.62,22.006,7.858c5.334,5.24,8.002,12.481,8.002,21.721v33.58
						c0,2.668,1.19,4,3.573,4v8.574c-1.621,0.286-2.858,0.429-3.715,0.429c-2.478,0-4.408-0.619-5.787-1.858
						c-1.382-1.237-2.121-2.951-2.215-5.144l-0.286-5.859c-3.43,4.479-7.741,7.908-12.932,10.289
						C462.362,715.015,456.766,716.207,450.765,716.207z M453.051,708.777c5.048,0,9.692-0.951,13.932-2.858
						c4.238-1.905,7.453-4.429,9.646-7.573c0.857-0.858,1.5-1.786,1.929-2.787c0.428-1,0.643-1.929,0.643-2.786v-12.145
						c-3.24-1.237-6.598-2.19-10.074-2.858c-3.479-0.666-7.026-1-10.645-1c-6.859,0-12.432,1.429-16.719,4.287
						c-4.286,2.857-6.43,6.622-6.43,11.289c0,2.286,0.451,4.429,1.357,6.429c0.904,2.001,2.143,3.74,3.715,5.216
						c1.572,1.478,3.452,2.643,5.644,3.501C448.24,708.348,450.573,708.777,453.051,708.777z"/>
					<path fill="#4582EC" d="M546.36,716.207c-5.907,0-11.313-1.476-16.218-4.429c-4.908-2.952-8.741-6.764-11.503-11.432v14.432
						h-8.717V610.465h9.717v45.441c3.334-5.048,7.334-9.121,12.003-12.218c4.667-3.094,10.096-4.643,16.29-4.643
						c5.238,0,9.931,1.096,14.075,3.286c4.144,2.192,7.667,5.122,10.574,8.788c2.905,3.669,5.144,7.813,6.716,12.432
						c1.571,4.621,2.357,9.36,2.357,14.218c0,5.24-0.907,10.194-2.715,14.861c-1.811,4.668-4.287,8.741-7.431,12.217
						c-3.144,3.479-6.883,6.24-11.217,8.288C555.957,715.182,551.313,716.207,546.36,716.207z M544.075,707.633
						c4.095,0,7.834-0.833,11.217-2.501c3.38-1.666,6.287-3.905,8.716-6.716c2.429-2.808,4.334-6.002,5.716-9.574
						c1.38-3.571,2.072-7.262,2.072-11.074c0-3.905-0.643-7.667-1.929-11.289c-1.287-3.619-3.097-6.834-5.43-9.646
						c-2.336-2.809-5.144-5.048-8.431-6.716c-3.287-1.666-6.883-2.501-10.789-2.501c-2.953,0-5.715,0.501-8.287,1.501
						c-2.572,1-4.954,2.357-7.144,4.072c-2.193,1.716-4.144,3.693-5.859,5.931c-1.715,2.239-3.144,4.596-4.287,7.073v23.148
						c0.38,2.572,1.405,4.979,3.072,7.217c1.666,2.239,3.666,4.168,6.002,5.787c2.333,1.621,4.858,2.907,7.573,3.858
						C539.002,707.158,541.596,707.633,544.075,707.633z"/>
					<path fill="#4582EC" d="M616.806,716.207c-3.525,0-6.787-0.596-9.788-1.786c-3-1.19-5.622-2.833-7.859-4.93
						c-2.239-2.095-3.979-4.548-5.215-7.359c-1.239-2.809-1.858-5.834-1.858-9.073c0-3.238,0.762-6.238,2.287-9.003
						c1.522-2.761,3.666-5.144,6.43-7.145c2.761-2,6.048-3.548,9.86-4.644c3.809-1.094,8.002-1.643,12.574-1.643
						c3.809,0,7.667,0.336,11.574,1c3.906,0.668,7.382,1.621,10.432,2.858v-6.716c0-6.573-1.858-11.788-5.573-15.646
						c-3.716-3.859-8.859-5.788-15.433-5.788c-3.811,0-7.716,0.763-11.716,2.286c-4.001,1.526-8.052,3.716-12.146,6.574l-3.429-6.43
						c9.621-6.477,18.956-9.716,28.007-9.716c9.335,0,16.67,2.62,22.006,7.858c5.334,5.24,8.002,12.481,8.002,21.721v33.58
						c0,2.668,1.19,4,3.572,4v8.574c-1.621,0.286-2.858,0.429-3.715,0.429c-2.479,0-4.408-0.619-5.788-1.858
						c-1.382-1.237-2.121-2.951-2.215-5.144l-0.286-5.859c-3.429,4.479-7.741,7.908-12.932,10.289
						C628.403,715.015,622.807,716.207,616.806,716.207z M619.093,708.777c5.048,0,9.692-0.951,13.932-2.858
						c4.238-1.905,7.453-4.429,9.646-7.573c0.858-0.858,1.501-1.786,1.93-2.787c0.428-1,0.643-1.929,0.643-2.786v-12.145
						c-3.24-1.237-6.598-2.19-10.075-2.858c-3.478-0.666-7.026-1-10.645-1c-6.859,0-12.432,1.429-16.719,4.287
						c-4.287,2.857-6.43,6.622-6.43,11.289c0,2.286,0.451,4.429,1.357,6.429c0.905,2.001,2.143,3.74,3.716,5.216
						c1.571,1.478,3.452,2.643,5.644,3.501C614.281,708.348,616.615,708.777,619.093,708.777z"/>
					<path fill="#4582EC" d="M664.818,740.642c-3.144,0-6.095-0.429-8.86-1.287c-2.761-0.857-5.238-2.286-7.431-4.286l4.716-6.574
						c1.525,1.333,3.192,2.237,5.001,2.715c1.81,0.476,3.621,0.715,5.429,0.715c1.715,0,3.359-0.334,4.93-1
						c1.572-0.668,2.976-1.596,4.215-2.786c1.237-1.192,2.238-2.596,3.001-4.215c0.761-1.621,1.143-3.382,1.143-5.287V640.33h9.716
						v77.735c0,3.334-0.621,6.381-1.858,9.145c-1.239,2.761-2.882,5.144-4.93,7.145c-2.049,2-4.383,3.548-7.002,4.643
						C670.27,740.093,667.58,740.642,664.818,740.642z M676.965,624.755v-14.29h9.716v14.29H676.965z"/>
					<path fill="#4582EC" d="M739.837,716.207c-5.43,0-10.385-1.025-14.861-3.072c-4.479-2.048-8.36-4.834-11.646-8.36
						c-3.287-3.523-5.836-7.62-7.646-12.289c-1.81-4.666-2.715-9.574-2.715-14.718c0-5.238,0.928-10.193,2.786-14.861
						c1.858-4.666,4.43-8.764,7.716-12.289c3.287-3.524,7.168-6.335,11.646-8.431c4.477-2.095,9.382-3.144,14.719-3.144
						c5.334,0,10.264,1.049,14.789,3.144c4.523,2.096,8.431,4.907,11.716,8.431c3.287,3.525,5.859,7.623,7.717,12.289
						c1.857,4.668,2.786,9.623,2.786,14.861c0,5.144-0.907,10.052-2.716,14.718c-1.81,4.669-4.358,8.766-7.644,12.289
						c-3.287,3.526-7.194,6.312-11.718,8.36C750.243,715.182,745.267,716.207,739.837,716.207z M712.83,677.911
						c0,4.194,0.714,8.074,2.143,11.646c1.429,3.573,3.357,6.716,5.788,9.432c2.429,2.715,5.287,4.835,8.573,6.359
						c3.287,1.525,6.788,2.286,10.504,2.286c3.715,0,7.216-0.786,10.502-2.357c3.286-1.572,6.167-3.716,8.645-6.43
						c2.477-2.715,4.43-5.881,5.859-9.502c1.429-3.619,2.143-7.524,2.143-11.718c0-4.095-0.715-7.977-2.143-11.646
						c-1.429-3.666-3.383-6.858-5.859-9.574c-2.478-2.715-5.359-4.858-8.645-6.429c-3.287-1.572-6.788-2.359-10.502-2.359
						c-3.716,0-7.194,0.786-10.432,2.359c-3.239,1.571-6.097,3.74-8.574,6.501c-2.478,2.765-4.429,5.98-5.858,9.646
						C713.544,669.791,712.83,673.721,712.83,677.911z"/>
				</g>
				<g>
					<path fill="none" stroke="#4582EC" stroke-width="9.8894" stroke-miterlimit="10" d="M385.461,622.183h-36.152v92.596h-10.003
						v-92.596h-36.152v-8.86h82.307V622.183z"/>
					<path fill="none" stroke="#4582EC" stroke-width="9.8894" stroke-miterlimit="10" d="M420.041,648.905
						c-6.573,0.191-12.289,2-17.147,5.429c-4.859,3.43-8.288,8.145-10.289,14.147v46.298h-9.717v-74.448h9.145v17.861
						c2.762-5.716,6.477-10.192,11.146-13.432c4.667-3.237,9.668-4.858,15.004-4.858c0.762,0,1.38,0.049,1.858,0.143V648.905z"/>
					<path fill="none" stroke="#4582EC" stroke-width="9.8894" stroke-miterlimit="10" d="M450.764,716.208
						c-3.525,0-6.787-0.596-9.788-1.786c-3.001-1.19-5.622-2.833-7.859-4.93c-2.239-2.095-3.979-4.548-5.215-7.359
						c-1.24-2.809-1.858-5.834-1.858-9.073c0-3.238,0.762-6.238,2.286-9.003c1.523-2.761,3.666-5.144,6.43-7.145
						c2.762-2,6.048-3.548,9.86-4.644c3.809-1.094,8.002-1.643,12.575-1.643c3.809,0,7.667,0.336,11.574,1
						c3.905,0.668,7.382,1.621,10.431,2.858v-6.716c0-6.573-1.857-11.788-5.573-15.646c-3.715-3.859-8.86-5.788-15.433-5.788
						c-3.811,0-7.716,0.763-11.717,2.286c-4.001,1.526-8.052,3.716-12.146,6.574l-3.429-6.43c9.621-6.477,18.956-9.716,28.007-9.716
						c9.335,0,16.67,2.62,22.006,7.858c5.334,5.24,8.002,12.481,8.002,21.721v33.58c0,2.668,1.19,4,3.573,4v8.574
						c-1.621,0.286-2.858,0.429-3.715,0.429c-2.478,0-4.408-0.619-5.787-1.858c-1.382-1.237-2.121-2.951-2.215-5.144l-0.286-5.859
						c-3.43,4.479-7.741,7.908-12.932,10.289C462.361,715.016,456.766,716.208,450.764,716.208z M453.051,708.778
						c5.048,0,9.692-0.951,13.932-2.858c4.238-1.905,7.453-4.429,9.646-7.573c0.857-0.858,1.5-1.786,1.929-2.787
						c0.428-1,0.643-1.929,0.643-2.786v-12.145c-3.24-1.237-6.598-2.19-10.074-2.858c-3.479-0.666-7.026-1-10.645-1
						c-6.859,0-12.432,1.429-16.719,4.287c-4.286,2.857-6.43,6.622-6.43,11.289c0,2.286,0.451,4.429,1.357,6.429
						c0.904,2.001,2.143,3.74,3.715,5.216c1.572,1.478,3.452,2.643,5.644,3.501C448.239,708.349,450.573,708.778,453.051,708.778z"
						/>
					<path fill="none" stroke="#4582EC" stroke-width="9.8894" stroke-miterlimit="10" d="M546.36,716.208
						c-5.907,0-11.313-1.476-16.218-4.429c-4.908-2.952-8.741-6.764-11.503-11.432v14.432h-8.717V610.466h9.717v45.441
						c3.334-5.048,7.334-9.121,12.003-12.218c4.667-3.094,10.096-4.643,16.29-4.643c5.238,0,9.931,1.096,14.075,3.286
						c4.144,2.192,7.667,5.122,10.574,8.788c2.905,3.669,5.144,7.813,6.716,12.432c1.571,4.621,2.357,9.36,2.357,14.218
						c0,5.24-0.907,10.194-2.715,14.861c-1.811,4.668-4.287,8.741-7.431,12.217c-3.144,3.479-6.883,6.24-11.217,8.288
						C555.957,715.183,551.313,716.208,546.36,716.208z M544.075,707.634c4.095,0,7.834-0.833,11.217-2.501
						c3.38-1.666,6.287-3.905,8.716-6.716c2.429-2.808,4.334-6.002,5.716-9.574c1.38-3.571,2.072-7.262,2.072-11.074
						c0-3.905-0.643-7.667-1.929-11.289c-1.287-3.619-3.097-6.834-5.43-9.646c-2.336-2.809-5.144-5.048-8.431-6.716
						c-3.287-1.666-6.883-2.501-10.789-2.501c-2.953,0-5.715,0.501-8.287,1.501c-2.572,1-4.954,2.357-7.144,4.072
						c-2.193,1.716-4.144,3.693-5.859,5.931c-1.715,2.239-3.144,4.596-4.287,7.073v23.148c0.38,2.572,1.405,4.979,3.072,7.217
						c1.666,2.239,3.666,4.168,6.002,5.787c2.333,1.621,4.858,2.907,7.573,3.858C539.002,707.159,541.596,707.634,544.075,707.634z"
						/>
					<path fill="none" stroke="#4582EC" stroke-width="9.8894" stroke-miterlimit="10" d="M616.806,716.208
						c-3.526,0-6.788-0.596-9.788-1.786c-3.001-1.19-5.623-2.833-7.859-4.93c-2.239-2.095-3.979-4.548-5.215-7.359
						c-1.24-2.809-1.858-5.834-1.858-9.073c0-3.238,0.761-6.238,2.286-9.003c1.523-2.761,3.667-5.144,6.43-7.145
						c2.762-2,6.048-3.548,9.86-4.644c3.809-1.094,8.003-1.643,12.575-1.643c3.808,0,7.667,0.336,11.574,1
						c3.905,0.668,7.382,1.621,10.431,2.858v-6.716c0-6.573-1.857-11.788-5.573-15.646c-3.715-3.859-8.86-5.788-15.432-5.788
						c-3.811,0-7.716,0.763-11.718,2.286c-4.001,1.526-8.052,3.716-12.146,6.574l-3.429-6.43c9.621-6.477,18.956-9.716,28.008-9.716
						c9.335,0,16.669,2.62,22.005,7.858c5.335,5.24,8.003,12.481,8.003,21.721v33.58c0,2.668,1.19,4,3.572,4v8.574
						c-1.621,0.286-2.858,0.429-3.716,0.429c-2.478,0-4.408-0.619-5.787-1.858c-1.382-1.237-2.122-2.951-2.215-5.144l-0.286-5.859
						c-3.43,4.479-7.741,7.908-12.933,10.289C628.403,715.016,622.807,716.208,616.806,716.208z M619.091,708.778
						c5.048,0,9.692-0.951,13.933-2.858c4.238-1.905,7.452-4.429,9.646-7.573c0.857-0.858,1.5-1.786,1.929-2.787
						c0.429-1,0.643-1.929,0.643-2.786v-12.145c-3.239-1.237-6.598-2.19-10.074-2.858c-3.479-0.666-7.027-1-10.646-1
						c-6.859,0-12.432,1.429-16.719,4.287c-4.286,2.857-6.429,6.622-6.429,11.289c0,2.286,0.451,4.429,1.357,6.429
						c0.903,2.001,2.143,3.74,3.715,5.216c1.572,1.478,3.452,2.643,5.644,3.501C614.28,708.349,616.614,708.778,619.091,708.778z"/>
					<path fill="none" stroke="#4582EC" stroke-width="9.8894" stroke-miterlimit="10" d="M664.817,740.643
						c-3.144,0-6.095-0.429-8.858-1.287c-2.762-0.857-5.238-2.286-7.431-4.286l4.715-6.574c1.526,1.333,3.194,2.237,5.001,2.715
						c1.811,0.476,3.621,0.714,5.43,0.714c1.715,0,3.357-0.334,4.93-1c1.571-0.668,2.976-1.596,4.215-2.786
						c1.237-1.192,2.237-2.596,3-4.215c0.761-1.621,1.143-3.382,1.143-5.287v-78.306h9.717v77.735c0,3.334-0.621,6.381-1.858,9.145
						c-1.239,2.761-2.883,5.144-4.93,7.145c-2.05,2-4.384,3.548-7.002,4.643C670.27,740.094,667.58,740.643,664.817,740.643z
						 M676.964,624.756v-14.29h9.717v14.29H676.964z"/>
					<path fill="none" stroke="#4582EC" stroke-width="9.8894" stroke-miterlimit="10" d="M739.836,716.208
						c-5.43,0-10.384-1.025-14.861-3.072c-4.479-2.048-8.359-4.834-11.646-8.36c-3.287-3.523-5.837-7.62-7.644-12.289
						c-1.811-4.666-2.716-9.574-2.716-14.718c0-5.238,0.93-10.193,2.787-14.861c1.857-4.666,4.429-8.764,7.716-12.289
						c3.286-3.524,7.167-6.335,11.646-8.431c4.476-2.095,9.382-3.144,14.718-3.144c5.334,0,10.264,1.049,14.789,3.144
						c4.524,2.096,8.431,4.907,11.718,8.431c3.287,3.525,5.858,7.623,7.716,12.289c1.858,4.668,2.786,9.623,2.786,14.861
						c0,5.144-0.907,10.052-2.715,14.718c-1.811,4.669-4.359,8.766-7.644,12.289c-3.287,3.526-7.194,6.312-11.718,8.36
						C750.243,715.183,745.267,716.208,739.836,716.208z M712.83,677.912c0,4.194,0.714,8.074,2.142,11.646
						c1.429,3.573,3.359,6.716,5.788,9.432c2.429,2.715,5.287,4.835,8.574,6.359c3.286,1.525,6.788,2.286,10.502,2.286
						c3.716,0,7.217-0.786,10.503-2.357c3.287-1.572,6.167-3.716,8.646-6.43c2.476-2.715,4.429-5.881,5.858-9.502
						c1.429-3.619,2.143-7.524,2.143-11.718c0-4.095-0.714-7.977-2.143-11.646c-1.429-3.666-3.382-6.858-5.858-9.574
						c-2.479-2.715-5.359-4.858-8.646-6.429c-3.286-1.572-6.787-2.359-10.503-2.359c-3.715,0-7.194,0.786-10.431,2.359
						c-3.24,1.571-6.098,3.74-8.574,6.501c-2.478,2.765-4.43,5.98-5.859,9.646C713.544,669.792,712.83,673.722,712.83,677.912z"/>
				</g>
			</g>
		</g>
	</g>
	<use xlink:href="#SVGID_1_"  overflow="visible" fill="none" stroke="#E8E8E8" stroke-width="10" stroke-miterlimit="10"/>
</g>
</svg>
