<?xml version="1.0" encoding="iso-8859-1"?>
<!-- Generator: Adobe Illustrator 17.0.0, SVG Export Plug-In . SVG Version: 6.00 Build 0)  -->
<!DOCTYPE svg PUBLIC "-//W3C//DTD SVG 1.1//EN" "http://www.w3.org/Graphics/SVG/1.1/DTD/svg11.dtd">
<svg version="1.1" id="Capa_1" xmlns="http://www.w3.org/2000/svg" xmlns:xlink="http://www.w3.org/1999/xlink" x="0px" y="0px"
	 width="360px" height="60px" viewBox="0 0 360 60" style="enable-background:new 0 0 360 60;" xml:space="preserve">
<g>
	<g>
		<path style="fill:#4582EC;stroke:#4582EC;stroke-width:2.2175;stroke-miterlimit:10;" d="M90.552,29.384
			c0,0.855-0.171,1.64-0.513,2.355c-0.342,0.716-0.801,1.336-1.378,1.859c-0.577,0.524-1.25,0.929-2.019,1.218
			c-0.769,0.288-1.591,0.433-2.467,0.433H73.442V12.499H84.4c0.79,0,1.506,0.171,2.147,0.513c0.641,0.342,1.186,0.785,1.634,1.33
			c0.449,0.545,0.796,1.164,1.041,1.858c0.246,0.694,0.368,1.394,0.368,2.099c0,1.153-0.288,2.205-0.865,3.156
			c-0.577,0.951-1.378,1.661-2.403,2.131c1.303,0.384,2.334,1.1,3.092,2.147C90.172,26.779,90.552,27.996,90.552,29.384z
			 M75.685,14.454v8.394h7.818c0.555,0,1.073-0.117,1.554-0.353c0.481-0.235,0.892-0.545,1.234-0.929
			c0.341-0.385,0.609-0.828,0.801-1.33s0.288-1.031,0.288-1.587c0-0.577-0.091-1.121-0.273-1.634
			c-0.181-0.513-0.438-0.956-0.769-1.33c-0.332-0.373-0.721-0.673-1.17-0.897c-0.448-0.224-0.94-0.336-1.474-0.336H75.685z
			 M88.309,29c0-0.555-0.096-1.094-0.288-1.617c-0.193-0.524-0.465-0.982-0.817-1.379c-0.353-0.394-0.769-0.715-1.25-0.961
			c-0.48-0.246-0.999-0.368-1.554-0.368h-8.715v8.619h8.491c0.577,0,1.116-0.117,1.618-0.353c0.501-0.235,0.939-0.55,1.313-0.945
			c0.373-0.395,0.667-0.854,0.881-1.378C88.202,30.095,88.309,29.555,88.309,29z"/>
		<path style="fill:#4582EC;stroke:#4582EC;stroke-width:2.2175;stroke-miterlimit:10;" d="M99.555,35.568
			c-1.816,0-3.167-0.603-4.053-1.81c-0.886-1.206-1.33-3.006-1.33-5.399v-9.804h2.179v9.42c0,3.78,1.292,5.671,3.877,5.671
			c0.641,0,1.271-0.107,1.89-0.321c0.62-0.213,1.191-0.523,1.714-0.929c0.523-0.405,0.993-0.885,1.41-1.442
			c0.417-0.555,0.753-1.185,1.009-1.89V18.555h2.179v13.874c0,0.598,0.256,0.897,0.769,0.897v1.923
			c-0.256,0.043-0.465,0.064-0.625,0.064c-0.161,0-0.273,0-0.336,0c-0.513-0.021-0.929-0.203-1.25-0.545
			c-0.32-0.341-0.481-0.801-0.481-1.378v-1.923c-0.726,1.303-1.714,2.312-2.964,3.029C102.295,35.211,100.965,35.568,99.555,35.568z
			"/>
		<path style="fill:#4582EC;stroke:#4582EC;stroke-width:2.2175;stroke-miterlimit:10;" d="M118.907,35.568
			c-1.303,0-2.574-0.213-3.813-0.64c-1.239-0.428-2.307-1.046-3.204-1.859l0.993-1.474c0.94,0.769,1.896,1.346,2.868,1.73
			c0.972,0.385,2.013,0.577,3.124,0.577c1.346,0,2.419-0.271,3.22-0.817c0.801-0.545,1.201-1.319,1.201-2.323
			c0-0.47-0.107-0.861-0.32-1.17c-0.213-0.309-0.529-0.581-0.945-0.817c-0.417-0.234-0.941-0.443-1.57-0.625
			c-0.63-0.181-1.362-0.368-2.195-0.56c-0.961-0.235-1.794-0.47-2.499-0.705c-0.705-0.235-1.287-0.502-1.746-0.801
			c-0.46-0.3-0.801-0.668-1.025-1.106c-0.225-0.437-0.337-0.988-0.337-1.649c0-0.834,0.166-1.571,0.497-2.212
			s0.779-1.169,1.345-1.586s1.228-0.732,1.987-0.945c0.758-0.213,1.565-0.32,2.419-0.32c1.282,0,2.445,0.208,3.492,0.625
			c1.046,0.417,1.891,0.967,2.531,1.65l-1.057,1.282c-0.62-0.641-1.372-1.122-2.259-1.442c-0.886-0.32-1.81-0.481-2.771-0.481
			c-0.577,0-1.111,0.059-1.602,0.176c-0.492,0.118-0.924,0.305-1.298,0.561c-0.374,0.256-0.668,0.582-0.881,0.977
			c-0.214,0.395-0.32,0.86-0.32,1.394c0,0.448,0.075,0.812,0.224,1.089c0.149,0.278,0.395,0.518,0.737,0.721
			c0.341,0.203,0.774,0.384,1.298,0.545c0.523,0.16,1.158,0.326,1.906,0.496c1.068,0.257,2.008,0.514,2.819,0.769
			c0.812,0.257,1.49,0.556,2.035,0.898c0.545,0.341,0.956,0.758,1.233,1.249c0.278,0.491,0.417,1.089,0.417,1.794
			c0,1.538-0.588,2.755-1.762,3.653C122.474,35.12,120.893,35.568,118.907,35.568z"/>
		<path style="fill:#4582EC;stroke:#4582EC;stroke-width:2.2175;stroke-miterlimit:10;" d="M127.814,26.853
			c0-1.174,0.203-2.285,0.609-3.332c0.406-1.046,0.977-1.959,1.714-2.739c0.737-0.779,1.618-1.394,2.644-1.843
			c1.025-0.448,2.157-0.672,3.396-0.672c1.581,0,2.958,0.358,4.133,1.073c1.175,0.716,2.061,1.682,2.659,2.899l-2.115,0.673
			c-0.47-0.854-1.127-1.522-1.97-2.003c-0.844-0.48-1.779-0.721-2.804-0.721c-0.855,0-1.65,0.171-2.387,0.513
			c-0.737,0.342-1.378,0.807-1.922,1.394c-0.545,0.588-0.972,1.287-1.282,2.098c-0.31,0.812-0.465,1.699-0.465,2.659
			c0,0.941,0.161,1.827,0.481,2.659c0.32,0.834,0.757,1.554,1.313,2.163c0.555,0.609,1.202,1.089,1.939,1.442
			c0.737,0.353,1.522,0.529,2.355,0.529c0.533,0,1.062-0.074,1.586-0.224c0.523-0.15,1.009-0.358,1.458-0.625
			c0.449-0.267,0.833-0.571,1.153-0.913c0.32-0.341,0.545-0.705,0.673-1.089l2.147,0.641c-0.235,0.598-0.577,1.149-1.026,1.65
			c-0.448,0.502-0.977,0.941-1.586,1.313c-0.609,0.374-1.282,0.662-2.018,0.865c-0.737,0.203-1.501,0.304-2.291,0.304
			c-1.218,0-2.339-0.23-3.364-0.688c-1.026-0.46-1.912-1.089-2.659-1.89c-0.748-0.802-1.33-1.726-1.746-2.772
			C128.023,29.171,127.814,28.051,127.814,26.853z"/>
		<path style="fill:#4582EC;stroke:#4582EC;stroke-width:2.2175;stroke-miterlimit:10;" d="M153.511,35.568
			c-1.218,0-2.329-0.23-3.332-0.688c-1.004-0.46-1.874-1.084-2.612-1.874c-0.737-0.791-1.308-1.709-1.714-2.755
			c-0.406-1.046-0.609-2.147-0.609-3.3c0-1.175,0.208-2.285,0.625-3.332c0.417-1.047,0.993-1.966,1.73-2.756
			c0.737-0.79,1.607-1.42,2.612-1.891c1.004-0.469,2.104-0.705,3.3-0.705c1.196,0,2.301,0.235,3.316,0.705
			c1.014,0.47,1.89,1.1,2.627,1.891c0.737,0.791,1.313,1.709,1.73,2.756c0.417,1.046,0.625,2.157,0.625,3.332
			c0,1.153-0.203,2.254-0.609,3.3c-0.406,1.046-0.977,1.964-1.714,2.755c-0.737,0.791-1.613,1.415-2.627,1.874
			C155.845,35.338,154.728,35.568,153.511,35.568z M147.455,26.982c0,0.941,0.161,1.81,0.481,2.611
			c0.32,0.802,0.753,1.506,1.298,2.115c0.545,0.608,1.186,1.084,1.922,1.426c0.737,0.341,1.522,0.513,2.355,0.513
			c0.833,0,1.618-0.177,2.355-0.529c0.737-0.353,1.383-0.832,1.939-1.442c0.555-0.608,0.993-1.318,1.314-2.13
			c0.32-0.812,0.48-1.687,0.48-2.628c0-0.918-0.161-1.789-0.48-2.611c-0.32-0.822-0.759-1.538-1.314-2.147
			c-0.556-0.609-1.201-1.089-1.939-1.442c-0.737-0.353-1.522-0.529-2.355-0.529c-0.834,0-1.613,0.176-2.339,0.529
			c-0.727,0.353-1.367,0.839-1.923,1.458c-0.556,0.62-0.993,1.342-1.313,2.163C147.616,25.161,147.455,26.042,147.455,26.982z"/>
		<path style="fill:#4582EC;stroke:#4582EC;stroke-width:2.2175;stroke-miterlimit:10;" d="M178.406,14.486H170.3v20.762h-2.243
			V14.486h-8.107v-1.987h18.455V14.486z"/>
		<path style="fill:#4582EC;stroke:#4582EC;stroke-width:2.2175;stroke-miterlimit:10;" d="M186.16,20.477
			c-1.473,0.043-2.755,0.449-3.844,1.218c-1.09,0.769-1.859,1.826-2.307,3.172v10.381h-2.178V18.555h2.051v4.005
			c0.619-1.281,1.452-2.285,2.499-3.012c1.046-0.726,2.168-1.089,3.364-1.089c0.171,0,0.31,0.011,0.417,0.032V20.477z"/>
		<path style="fill:#4582EC;stroke:#4582EC;stroke-width:2.2175;stroke-miterlimit:10;" d="M193.049,35.568
			c-0.791,0-1.522-0.133-2.194-0.4c-0.674-0.267-1.262-0.635-1.763-1.105c-0.502-0.47-0.892-1.021-1.169-1.65
			c-0.278-0.631-0.417-1.309-0.417-2.035c0-0.725,0.171-1.399,0.512-2.018c0.341-0.62,0.822-1.153,1.442-1.602
			s1.356-0.795,2.211-1.042c0.854-0.244,1.794-0.368,2.819-0.368c0.854,0,1.72,0.075,2.596,0.224
			c0.874,0.15,1.654,0.364,2.338,0.641v-1.506c0-1.473-0.417-2.643-1.25-3.508c-0.834-0.865-1.987-1.298-3.46-1.298
			c-0.855,0-1.73,0.171-2.627,0.513c-0.898,0.342-1.806,0.834-2.724,1.474l-0.769-1.442c2.157-1.452,4.251-2.178,6.28-2.178
			c2.093,0,3.74,0.587,4.936,1.762c1.196,1.175,1.793,2.799,1.793,4.87v7.53c0,0.598,0.268,0.897,0.802,0.897v1.923
			c-0.365,0.064-0.642,0.096-0.834,0.096c-0.556,0-0.989-0.139-1.298-0.416c-0.311-0.278-0.475-0.662-0.498-1.153l-0.063-1.314
			c-0.768,1.005-1.737,1.774-2.899,2.307C195.65,35.301,194.395,35.568,193.049,35.568z M193.562,33.902
			c1.132,0,2.174-0.213,3.125-0.641c0.951-0.427,1.672-0.992,2.163-1.697c0.191-0.193,0.336-0.401,0.433-0.625
			c0.097-0.224,0.144-0.433,0.144-0.625v-2.722c-0.725-0.278-1.48-0.491-2.26-0.641c-0.779-0.15-1.575-0.225-2.387-0.225
			c-1.538,0-2.788,0.321-3.749,0.962c-0.961,0.641-1.442,1.485-1.442,2.531c0,0.513,0.101,0.993,0.304,1.442
			c0.203,0.448,0.481,0.839,0.834,1.169c0.353,0.332,0.774,0.594,1.265,0.785C192.482,33.806,193.006,33.902,193.562,33.902z"/>
		<path style="fill:#4582EC;stroke:#4582EC;stroke-width:2.2175;stroke-miterlimit:10;" d="M214.484,35.568
			c-1.325,0-2.537-0.33-3.637-0.992c-1.099-0.662-1.96-1.517-2.578-2.564v3.236h-1.955V11.859h2.18v10.189
			c0.747-1.132,1.645-2.045,2.691-2.739c1.046-0.694,2.264-1.041,3.653-1.041c1.175,0,2.227,0.246,3.156,0.737
			c0.929,0.492,1.719,1.148,2.371,1.971c0.651,0.823,1.153,1.752,1.506,2.787c0.353,1.036,0.528,2.098,0.528,3.189
			c0,1.175-0.203,2.285-0.608,3.332c-0.407,1.046-0.962,1.96-1.667,2.739c-0.704,0.781-1.543,1.399-2.515,1.859
			C216.635,35.338,215.595,35.568,214.484,35.568z M213.972,33.646c0.918,0,1.757-0.187,2.515-0.561s1.409-0.875,1.954-1.506
			c0.545-0.63,0.972-1.346,1.282-2.147s0.464-1.629,0.464-2.483c0-0.876-0.144-1.72-0.433-2.532
			c-0.288-0.811-0.694-1.532-1.218-2.162c-0.524-0.63-1.153-1.132-1.89-1.506c-0.737-0.373-1.543-0.561-2.419-0.561
			c-0.662,0-1.281,0.112-1.857,0.337c-0.577,0.224-1.112,0.528-1.603,0.913c-0.491,0.385-0.929,0.828-1.313,1.33
			c-0.384,0.503-0.705,1.031-0.961,1.587v5.19c0.084,0.577,0.314,1.116,0.688,1.617c0.374,0.502,0.822,0.935,1.346,1.298
			c0.523,0.364,1.089,0.652,1.699,0.865C212.834,33.539,213.416,33.646,213.972,33.646z"/>
		<path style="fill:#4582EC;stroke:#4582EC;stroke-width:2.2175;stroke-miterlimit:10;" d="M230.281,35.568
			c-0.791,0-1.522-0.133-2.195-0.4c-0.672-0.267-1.26-0.635-1.762-1.105c-0.502-0.47-0.892-1.021-1.17-1.65
			c-0.277-0.631-0.416-1.309-0.416-2.035c0-0.725,0.17-1.399,0.512-2.018c0.341-0.62,0.822-1.153,1.442-1.602
			s1.356-0.795,2.211-1.042c0.854-0.244,1.794-0.368,2.819-0.368c0.854,0,1.719,0.075,2.595,0.224
			c0.875,0.15,1.655,0.364,2.338,0.641v-1.506c0-1.473-0.416-2.643-1.249-3.508c-0.834-0.865-1.987-1.298-3.46-1.298
			c-0.855,0-1.73,0.171-2.628,0.513c-0.897,0.342-1.804,0.834-2.722,1.474l-0.769-1.442c2.157-1.452,4.25-2.178,6.28-2.178
			c2.093,0,3.738,0.587,4.935,1.762c1.196,1.175,1.794,2.799,1.794,4.87v7.53c0,0.598,0.267,0.897,0.801,0.897v1.923
			c-0.364,0.064-0.641,0.096-0.834,0.096c-0.555,0-0.988-0.139-1.298-0.416c-0.31-0.278-0.475-0.662-0.497-1.153l-0.064-1.314
			c-0.768,1.005-1.736,1.774-2.899,2.307C232.88,35.301,231.625,35.568,230.281,35.568z M230.793,33.902
			c1.132,0,2.173-0.213,3.123-0.641c0.951-0.427,1.672-0.992,2.163-1.697c0.193-0.193,0.337-0.401,0.433-0.625
			c0.097-0.224,0.144-0.433,0.144-0.625v-2.722c-0.725-0.278-1.479-0.491-2.258-0.641c-0.779-0.15-1.576-0.225-2.387-0.225
			c-1.539,0-2.788,0.321-3.749,0.962c-0.962,0.641-1.442,1.485-1.442,2.531c0,0.513,0.1,0.993,0.304,1.442
			c0.203,0.448,0.481,0.839,0.832,1.169c0.353,0.332,0.775,0.594,1.266,0.785C229.714,33.806,230.238,33.902,230.793,33.902z"/>
		<path style="fill:#4582EC;stroke:#4582EC;stroke-width:2.2175;stroke-miterlimit:10;" d="M241.045,41.048
			c-0.705,0-1.367-0.097-1.987-0.288c-0.62-0.193-1.175-0.514-1.666-0.962l1.058-1.473c0.341,0.298,0.715,0.501,1.121,0.608
			c0.407,0.107,0.812,0.16,1.218,0.16c0.384,0,0.754-0.074,1.105-0.224c0.353-0.15,0.668-0.357,0.946-0.624
			c0.277-0.268,0.501-0.582,0.672-0.945c0.171-0.364,0.257-0.759,0.257-1.186V18.555h2.178v17.43c0,0.748-0.14,1.432-0.417,2.051
			c-0.278,0.62-0.647,1.153-1.105,1.602c-0.46,0.448-0.983,0.795-1.57,1.042C242.267,40.924,241.664,41.048,241.045,41.048z
			 M243.769,15.063v-3.204h2.178v3.204H243.769z"/>
		<path style="fill:#4582EC;stroke:#4582EC;stroke-width:2.2175;stroke-miterlimit:10;" d="M257.866,35.568
			c-1.218,0-2.328-0.23-3.332-0.688c-1.005-0.46-1.874-1.084-2.611-1.874c-0.738-0.791-1.309-1.709-1.714-2.755
			c-0.407-1.046-0.609-2.147-0.609-3.3c0-1.175,0.208-2.285,0.625-3.332c0.417-1.047,0.993-1.966,1.73-2.756
			c0.737-0.79,1.607-1.42,2.611-1.891c1.005-0.469,2.104-0.705,3.3-0.705c1.196,0,2.302,0.235,3.316,0.705
			c1.015,0.47,1.891,1.1,2.628,1.891c0.737,0.791,1.313,1.709,1.73,2.756c0.417,1.046,0.625,2.157,0.625,3.332
			c0,1.153-0.204,2.254-0.609,3.3c-0.406,1.046-0.977,1.964-1.714,2.755c-0.737,0.791-1.613,1.415-2.627,1.874
			C260.2,35.338,259.083,35.568,257.866,35.568z M251.81,26.982c0,0.941,0.16,1.81,0.481,2.611c0.32,0.802,0.752,1.506,1.298,2.115
			c0.544,0.608,1.185,1.084,1.923,1.426c0.737,0.341,1.522,0.513,2.354,0.513c0.834,0,1.619-0.177,2.355-0.529
			s1.383-0.832,1.939-1.442c0.555-0.608,0.993-1.318,1.313-2.13c0.321-0.812,0.481-1.687,0.481-2.628
			c0-0.918-0.16-1.789-0.481-2.611c-0.32-0.822-0.758-1.538-1.313-2.147s-1.202-1.089-1.939-1.442s-1.522-0.529-2.355-0.529
			c-0.832,0-1.613,0.176-2.338,0.529c-0.727,0.353-1.367,0.839-1.923,1.458c-0.555,0.62-0.993,1.342-1.313,2.163
			C251.97,25.161,251.81,26.042,251.81,26.982z"/>
		<path style="fill:#4582EC;stroke:#4582EC;stroke-width:2.2175;stroke-miterlimit:10;" d="M268.76,23.713
			c0-1.366,0.24-2.728,0.721-4.084c0.48-1.356,1.179-2.569,2.098-3.637c0.918-1.068,2.05-1.939,3.396-2.612
			c1.346-0.673,2.872-1.009,4.582-1.009c2.029,0,3.764,0.46,5.206,1.378c1.442,0.919,2.504,2.115,3.189,3.589l-1.763,1.089
			c-0.364-0.747-0.806-1.378-1.329-1.89c-0.524-0.513-1.085-0.929-1.683-1.25c-0.598-0.32-1.218-0.55-1.859-0.689
			c-0.641-0.139-1.271-0.208-1.89-0.208c-1.367,0-2.574,0.278-3.62,0.833c-1.048,0.556-1.928,1.282-2.644,2.179
			c-0.716,0.897-1.255,1.906-1.619,3.028c-0.363,1.121-0.544,2.259-0.544,3.412c0,1.262,0.219,2.468,0.657,3.621
			c0.437,1.153,1.036,2.174,1.794,3.059c0.758,0.886,1.655,1.592,2.691,2.115c1.036,0.524,2.163,0.785,3.38,0.785
			c0.641,0,1.298-0.081,1.971-0.241c0.672-0.16,1.323-0.417,1.954-0.768c0.63-0.353,1.212-0.791,1.746-1.314
			c0.534-0.523,0.982-1.158,1.346-1.906l1.859,0.961c-0.364,0.855-0.876,1.607-1.539,2.26c-0.662,0.651-1.399,1.201-2.21,1.65
			c-0.812,0.448-1.672,0.79-2.579,1.025c-0.908,0.234-1.8,0.353-2.675,0.353c-1.56,0-2.992-0.341-4.294-1.026
			c-1.303-0.683-2.425-1.575-3.365-2.675c-0.941-1.099-1.672-2.35-2.194-3.749C269.021,26.592,268.76,25.166,268.76,23.713z"/>
		<path style="fill:#4582EC;stroke:#4582EC;stroke-width:2.2175;stroke-miterlimit:10;" d="M298.974,12.499h1.89l9.451,22.749
			h-2.371l-2.948-7.113h-10.221l-2.915,7.113h-2.404L298.974,12.499z M304.484,26.373l-4.581-11.247l-4.646,11.247H304.484z"/>
		<path style="fill:#4582EC;stroke:#4582EC;stroke-width:2.2175;stroke-miterlimit:10;" d="M330.694,29.384
			c0,0.855-0.171,1.64-0.514,2.355c-0.341,0.716-0.801,1.336-1.378,1.859c-0.577,0.524-1.249,0.929-2.018,1.218
			c-0.768,0.288-1.592,0.433-2.467,0.433h-10.733V12.499h10.957c0.79,0,1.506,0.171,2.147,0.513c0.641,0.342,1.185,0.785,1.634,1.33
			c0.448,0.545,0.795,1.164,1.041,1.858c0.246,0.694,0.368,1.394,0.368,2.099c0,1.153-0.288,2.205-0.865,3.156
			c-0.577,0.951-1.378,1.661-2.403,2.131c1.302,0.384,2.333,1.1,3.092,2.147C330.315,26.779,330.694,27.996,330.694,29.384z
			 M315.827,14.454v8.394h7.818c0.554,0,1.072-0.117,1.553-0.353c0.481-0.235,0.892-0.545,1.233-0.929
			c0.341-0.385,0.609-0.828,0.801-1.33c0.193-0.502,0.288-1.031,0.288-1.587c0-0.577-0.09-1.121-0.271-1.634
			c-0.182-0.513-0.438-0.956-0.769-1.33c-0.331-0.373-0.721-0.673-1.169-0.897c-0.449-0.224-0.941-0.336-1.474-0.336H315.827z
			 M328.451,29c0-0.555-0.096-1.094-0.288-1.617c-0.191-0.524-0.464-0.982-0.817-1.379c-0.353-0.394-0.769-0.715-1.249-0.961
			c-0.481-0.246-0.999-0.368-1.554-0.368h-8.715v8.619h8.491c0.577,0,1.116-0.117,1.617-0.353c0.502-0.235,0.941-0.55,1.314-0.945
			c0.373-0.395,0.667-0.854,0.881-1.378C328.343,30.095,328.451,29.555,328.451,29z"/>
		<path style="fill:#4582EC;stroke:#4582EC;stroke-width:2.2175;stroke-miterlimit:10;" d="M341.492,12.499h1.89l9.451,22.749
			h-2.371l-2.948-7.113h-10.221l-2.915,7.113h-2.404L341.492,12.499z M347.002,26.373l-4.581-11.247l-4.646,11.247H347.002z"/>
	</g>
	<g>
		<g>
			<path style="fill:#4582EC;stroke:#4582EC;stroke-width:0.1153;stroke-miterlimit:10;" d="M55.766,17.873
				c-1.047-0.14-2.202,0.121-3.28,0.33c-1.115-2.729-2.335-5.411-3.653-8.025C48.002,8.53,47.028,5.92,45.417,4.83
				c-2.225-1.507-4.737,0.988-6.133,2.518c-5.948,6.518-11.372,13.395-19.34,17.613C19.87,25,19.81,25.047,19.756,25.096
				c-2.245,0.686-4.483,1.391-6.711,2.131c-1.435,0.477-3.39,0.798-4.575,1.852c-2.034,1.809-0.677,5.75,0.127,7.815
				c0.757,1.947,2.519,5.873,4.786,6.54c0.62,0.183,1.355,0.084,2.09-0.1c1.348,2.795,2.575,5.671,4.13,8.36
				c1.001,1.732,2.015,4.037,4.356,3.262c2.441-0.808,5.515-3.298,4.771-6.18c-0.375-1.456-1.705-2.542-2.533-3.723
				c-0.916-1.308-1.629-2.723-2.302-4.163c0.362-0.114,0.724-0.227,1.085-0.344c4.572-0.891,9.17-1.347,13.816-0.834
				c4.134,0.457,8.174,1.548,12.234,2.413c2,0.426,5.813,2.003,7.187-0.419c1.404-2.474-0.448-7.102-1.087-9.56
				c-0.434-1.67-0.917-3.334-1.433-4.99c1.122-0.754,2.513-1.468,3.06-2.73c0.577-1.331,0.002-2.8-0.559-4.029
				C57.716,19.342,57.032,18.042,55.766,17.873z M12.068,39.725c-0.673-0.935-1.21-1.935-1.66-2.992
				c-0.45-1.058-0.796-2.138-1.001-3.272c-0.44-2.429,0.921-3.496,3.017-4.201c2.531-0.852,5.076-1.66,7.63-2.442
				c1.288,4.084,2.655,8.141,4.1,12.173c-2.265,0.728-4.546,1.402-6.852,1.989C15.155,41.526,13.533,41.761,12.068,39.725z
				 M25.676,46.519c0.231,0.304,0.598,0.697,0.785,0.99c1.129,1.772,1.154,2.862-0.339,4.51c-0.398,0.439-1.173,0.932-1.691,1.18
				c-0.508,0.243-0.883,0.373-1.216,0.382c0.241-0.413,0.439-0.848,0.595-1.304c0.271-0.793-0.984-1.134-1.253-0.346
				c-0.131,0.383-0.306,0.741-0.514,1.082c-0.056-0.053-0.11-0.1-0.169-0.161c-0.121-0.124-0.235-0.262-0.348-0.402
				c0.013-0.027,0.027-0.052,0.037-0.082c0.095-0.278,0.272-0.525,0.403-0.787c0.161-0.321,0.296-0.655,0.414-0.995
				c0.273-0.792-0.982-1.133-1.253-0.346c-0.115,0.334-0.28,0.644-0.441,0.955c-0.172-0.304-0.333-0.619-0.489-0.935
				c0.002-0.004,0.006-0.006,0.008-0.01c0.298-0.651,0.596-1.302,0.894-1.953c0.146-0.319,0.091-0.7-0.233-0.889
				c-0.28-0.164-0.742-0.088-0.889,0.233c-0.167,0.364-0.333,0.728-0.5,1.092c-0.118-0.253-0.234-0.501-0.349-0.733
				c-0.06-0.121-0.116-0.245-0.175-0.367c0.049-0.044,0.095-0.095,0.133-0.162c0.29-0.499,0.58-0.998,0.869-1.497
				c0.421-0.725-0.702-1.38-1.122-0.656c-0.181,0.311-0.361,0.621-0.541,0.932c-0.163-0.345-0.332-0.687-0.494-1.032
				c0.047-0.041,0.095-0.083,0.134-0.134c0.259-0.341,0.51-0.688,0.752-1.042c0.198-0.29,0.055-0.721-0.233-0.889
				c-0.321-0.188-0.69-0.057-0.889,0.233c-0.122,0.179-0.254,0.352-0.381,0.528c-0.149-0.317-0.299-0.635-0.45-0.951
				c0.369-0.119,0.719-0.233,1.033-0.312c1.641-0.417,3.267-0.881,4.885-1.374C23.509,43.12,24.435,44.888,25.676,46.519z
				 M49.69,40.06c-3.735-0.826-7.463-1.744-11.278-2.124c-4.365-0.434-8.69-0.014-12.983,0.772c-1.483-4.132-2.883-8.291-4.2-12.479
				c7.16-3.908,12.728-10.014,17.976-16.143c0.607-0.709,1.57-2.069,2.644-2.976c3.097,4.638,5.119,10.414,7.148,15.532
				c2.327,5.872,4.263,12.26,5.378,18.512C52.779,41.037,50.811,40.308,49.69,40.06z M56.877,39.521
				c-0.059,0.901-0.528,1.352-1.203,1.54c-1.134-6.486-3.147-13.089-5.588-19.177c-2.056-5.128-4.04-10.848-7.146-15.479
				c0.567-0.245,1.143-0.289,1.697,0.028c0.736,0.422,1.366,2.1,1.754,2.807c1.8,3.284,3.308,6.741,4.693,10.217
				c1.655,4.153,3.117,8.392,4.263,12.715C55.924,34.349,57.027,37.255,56.877,39.521z M57.281,24.343
				c-0.45,0.642-1.266,1.093-1.99,1.538c-0.705-2.167-1.48-4.314-2.317-6.436c0.517-0.086,1.034-0.169,1.555-0.224
				c1.268-0.133,1.753,0.23,2.349,1.403C57.444,21.739,58.1,23.174,57.281,24.343z"/>
			<path style="fill:#4582EC;stroke:#4582EC;stroke-width:0.1153;stroke-miterlimit:10;" d="M56.112,13.982
				c0.01-1.235-0.004-2.47,0.006-3.704c0.007-0.837-1.293-0.837-1.3,0c-0.01,1.235,0.004,2.47-0.006,3.704
				C54.806,14.818,56.105,14.819,56.112,13.982z"/>
			<path style="fill:#4582EC;stroke:#4582EC;stroke-width:0.1153;stroke-miterlimit:10;" d="M61.403,16.483
				c0.677-0.742,1.354-1.485,2.031-2.227c0.563-0.617-0.354-1.539-0.919-0.919c-0.677,0.742-1.354,1.485-2.031,2.227
				C59.922,16.181,60.838,17.103,61.403,16.483z"/>
			<path style="fill:#4582EC;stroke:#4582EC;stroke-width:0.1153;stroke-miterlimit:10;" d="M65.858,20.738
				c-0.964-0.06-1.931-0.054-2.897-0.084c-0.837-0.026-0.836,1.274,0,1.3c0.965,0.03,1.932,0.024,2.897,0.084
				C66.693,22.09,66.69,20.79,65.858,20.738z"/>
			<path style="fill:#4582EC;stroke:#4582EC;stroke-width:0.1153;stroke-miterlimit:10;" d="M60.966,26.654
				c-0.679-0.49-1.329,0.637-0.656,1.122c0.828,0.597,1.598,1.268,2.352,1.955c0.617,0.562,1.539-0.354,0.919-0.919
				C62.745,28.05,61.884,27.316,60.966,26.654z"/>
			<path style="fill:#4582EC;stroke:#4582EC;stroke-width:0.1153;stroke-miterlimit:10;" d="M14.427,32.779
				c0.771-0.3,0.436-1.557-0.345-1.253c-0.872,0.339-1.743,0.678-2.615,1.017c-0.771,0.3-0.436,1.557,0.345,1.253
				C12.683,33.457,13.555,33.118,14.427,32.779z"/>
			<path style="fill:#4582EC;stroke:#4582EC;stroke-width:0.1153;stroke-miterlimit:10;" d="M14.785,33.654
				c-0.894,0.426-1.814,0.774-2.763,1.056c-0.8,0.238-0.459,1.493,0.346,1.253c1.056-0.314,2.079-0.713,3.074-1.187
				C16.195,34.416,15.537,33.295,14.785,33.654z"/>
		</g>
	</g>
</g>
</svg>
